<svg width="427" height="427" viewBox="0 0 427 427" fill="none" xmlns="http://www.w3.org/2000/svg">
<mask id="mask0_62_1801" style="mask-type:alpha" maskUnits="userSpaceOnUse" x="0" y="0" width="427" height="427">
<rect width="427" height="427" fill="#D9D9D9"/>
</mask>
<g mask="url(#mask0_62_1801)">
<path d="M104.867 84.4989C106.486 83.5184 108.342 83 110.234 83H393.338C403.82 83 407.67 96.785 398.705 102.216L322.342 148.48C320.723 149.461 318.867 149.979 316.975 149.979H33.8712C23.3897 149.979 19.5397 136.194 28.5044 130.763L104.867 84.4989Z" fill="url(#paint0_linear_62_1801)"/>
<path d="M89.1648 170.808C90.7818 169.83 92.6357 169.313 94.5255 169.313H378.097C388.582 169.313 392.43 183.106 383.458 188.533L306.973 234.797C305.356 235.775 303.502 236.292 301.613 236.292H18.041C7.55557 236.292 3.70847 222.499 12.6803 217.072L89.1648 170.808Z" fill="url(#paint1_linear_62_1801)"/>
<path d="M82.0812 257.125C83.6996 256.145 85.5558 255.626 87.4481 255.626H370.552C381.033 255.626 384.883 269.411 375.919 274.842L299.556 321.106C297.937 322.087 296.081 322.605 294.189 322.605H11.0851C0.603546 322.605 -3.24645 308.82 5.71822 303.389L82.0812 257.125Z" fill="url(#paint2_linear_62_1801)"/>
<g filter="url(#filter0_d_62_1801)">
<path fill-rule="evenodd" clip-rule="evenodd" d="M87.9004 153.431L103.059 179.686H93.2583V285.598H101.154L87.5431 309.174L73.9317 285.598H83.2565V179.686H72.7423L87.9004 153.431Z" fill="#00FFB2"/>
</g>
<g filter="url(#filter1_d_62_1801)">
<path fill-rule="evenodd" clip-rule="evenodd" d="M257.659 153.431L245.368 162.278H253.314V197.966H246.912L257.949 205.91L268.985 197.966H261.424V162.278H269.949L257.659 153.431Z" fill="#00FFB2"/>
</g>
<g filter="url(#filter2_d_62_1801)">
<path fill-rule="evenodd" clip-rule="evenodd" d="M200.14 243.197L190.818 251.758H196.845V286.295H191.989L200.36 293.982L208.73 286.295H202.996V251.758H209.462L200.14 243.197Z" fill="#00FFB2"/>
</g>
</g>
<defs>
<filter id="filter0_d_62_1801" x="59.6226" y="143.074" width="56.5556" height="181.981" filterUnits="userSpaceOnUse" color-interpolation-filters="sRGB">
<feFlood flood-opacity="0" result="BackgroundImageFix"/>
<feColorMatrix in="SourceAlpha" type="matrix" values="0 0 0 0 0 0 0 0 0 0 0 0 0 0 0 0 0 0 127 0" result="hardAlpha"/>
<feOffset dy="2.76202"/>
<feGaussianBlur stdDeviation="6.55979"/>
<feComposite in2="hardAlpha" operator="out"/>
<feColorMatrix type="matrix" values="0 0 0 0 0 0 0 0 0 0 0 0 0 0 0 0 0 0 0.25 0"/>
<feBlend mode="normal" in2="BackgroundImageFix" result="effect1_dropShadow_62_1801"/>
<feBlend mode="normal" in="SourceGraphic" in2="effect1_dropShadow_62_1801" result="shape"/>
</filter>
<filter id="filter1_d_62_1801" x="232.249" y="143.074" width="50.8202" height="78.7175" filterUnits="userSpaceOnUse" color-interpolation-filters="sRGB">
<feFlood flood-opacity="0" result="BackgroundImageFix"/>
<feColorMatrix in="SourceAlpha" type="matrix" values="0 0 0 0 0 0 0 0 0 0 0 0 0 0 0 0 0 0 127 0" result="hardAlpha"/>
<feOffset dy="2.76202"/>
<feGaussianBlur stdDeviation="6.55979"/>
<feComposite in2="hardAlpha" operator="out"/>
<feColorMatrix type="matrix" values="0 0 0 0 0 0 0 0 0 0 0 0 0 0 0 0 0 0 0.25 0"/>
<feBlend mode="normal" in2="BackgroundImageFix" result="effect1_dropShadow_62_1801"/>
<feBlend mode="normal" in="SourceGraphic" in2="effect1_dropShadow_62_1801" result="shape"/>
</filter>
<filter id="filter2_d_62_1801" x="177.699" y="232.839" width="44.8827" height="77.0246" filterUnits="userSpaceOnUse" color-interpolation-filters="sRGB">
<feFlood flood-opacity="0" result="BackgroundImageFix"/>
<feColorMatrix in="SourceAlpha" type="matrix" values="0 0 0 0 0 0 0 0 0 0 0 0 0 0 0 0 0 0 127 0" result="hardAlpha"/>
<feOffset dy="2.76202"/>
<feGaussianBlur stdDeviation="6.55979"/>
<feComposite in2="hardAlpha" operator="out"/>
<feColorMatrix type="matrix" values="0 0 0 0 0 0 0 0 0 0 0 0 0 0 0 0 0 0 0.25 0"/>
<feBlend mode="normal" in2="BackgroundImageFix" result="effect1_dropShadow_62_1801"/>
<feBlend mode="normal" in="SourceGraphic" in2="effect1_dropShadow_62_1801" result="shape"/>
</filter>
<linearGradient id="paint0_linear_62_1801" x1="213.605" y1="83" x2="213.605" y2="149.979" gradientUnits="userSpaceOnUse">
<stop stop-color="#3D0F9F"/>
<stop offset="1" stop-color="#7039E6"/>
</linearGradient>
<linearGradient id="paint1_linear_62_1801" x1="216.713" y1="236.292" x2="216.022" y2="169.313" gradientUnits="userSpaceOnUse">
<stop stop-color="#3CF3FF"/>
<stop offset="1" stop-color="#02949D"/>
</linearGradient>
<linearGradient id="paint2_linear_62_1801" x1="190.818" y1="255.626" x2="190.818" y2="322.605" gradientUnits="userSpaceOnUse">
<stop stop-color="#A709AC"/>
<stop offset="1" stop-color="#E16FE5"/>
</linearGradient>
</defs>
</svg>
