<svg width="163" height="38" viewBox="0 0 163 38" fill="none" xmlns="http://www.w3.org/2000/svg">
<path d="M49.4932 31.1471V8.53416H56.8689C59.3174 8.53416 61.4421 9.0198 63.243 9.9911C65.044 10.9624 66.4402 12.2979 67.4318 13.9977C68.4233 15.6975 68.919 17.64 68.919 19.8255C68.919 22.0109 68.4233 23.9636 67.4318 25.6836C66.4402 27.3833 65.044 28.7189 63.243 29.6902C61.4421 30.6615 59.3174 31.1471 56.8689 31.1471H49.4932ZM54.1979 27.0495H56.9903C58.4675 27.0495 59.7423 26.756 60.8148 26.1692C61.8873 25.5622 62.7169 24.7224 63.3038 23.6499C63.9108 22.5572 64.2143 21.2824 64.2143 19.8255C64.2143 18.3483 63.9108 17.0735 63.3038 16.001C62.7169 14.9285 61.8873 14.0989 60.8148 13.512C59.7423 12.9252 58.4675 12.6318 56.9903 12.6318H54.1979V27.0495Z" fill="#D2D3D5"/>
<path d="M71.5979 31.1471V14.5744H76.1509V31.1471H71.5979ZM71.5979 13.0871V8.53416H76.1509V13.0871H71.5979Z" fill="#D2D3D5"/>
<path d="M85.9781 31.5113C84.1569 31.5113 82.5685 31.0864 81.2127 30.2365C79.8772 29.3664 78.9666 28.2029 78.4809 26.7459L81.8198 25.1676C82.2447 26.0579 82.8214 26.756 83.5499 27.2619C84.2783 27.7678 85.0878 28.0207 85.9781 28.0207C86.6256 28.0207 87.1214 27.8892 87.4654 27.6262C87.8094 27.3631 87.9814 26.9989 87.9814 26.5335C87.9814 26.2906 87.9207 26.0883 87.7993 25.9264C87.6779 25.7443 87.4958 25.5824 87.2529 25.4407C87.0101 25.2991 86.7066 25.1777 86.3423 25.0765L83.5195 24.2873C82.1638 23.9029 81.1216 23.2857 80.3932 22.4358C79.6647 21.5657 79.3005 20.5438 79.3005 19.3702C79.3005 18.3382 79.5635 17.4377 80.0896 16.6687C80.6158 15.8998 81.3543 15.3029 82.3054 14.8779C83.2565 14.4327 84.3492 14.2102 85.5835 14.2102C87.2023 14.2102 88.6188 14.5946 89.8329 15.3636C91.0673 16.1123 91.9374 17.1746 92.4433 18.5506L89.0741 20.129C88.8313 19.441 88.3861 18.8946 87.7386 18.4899C87.1113 18.065 86.3929 17.8525 85.5835 17.8525C84.9967 17.8525 84.5313 17.9739 84.1873 18.2167C83.8635 18.4596 83.7016 18.7935 83.7016 19.2184C83.7016 19.441 83.7623 19.6433 83.8838 19.8255C84.0052 20.0076 84.1974 20.1695 84.4605 20.3111C84.7438 20.4527 85.0878 20.5843 85.4925 20.7057L88.1332 21.4949C89.5092 21.8996 90.5614 22.5167 91.2899 23.3464C92.0183 24.1558 92.3826 25.1575 92.3826 26.3513C92.3826 27.3833 92.1094 28.2838 91.5631 29.0527C91.0369 29.8217 90.2983 30.4287 89.3473 30.8739C88.3962 31.2989 87.2732 31.5113 85.9781 31.5113Z" fill="#D2D3D5"/>
<path d="M103.238 31.5113C101.579 31.5113 100.082 31.137 98.746 30.3883C97.4307 29.6193 96.3785 28.5772 95.5893 27.2619C94.8204 25.9466 94.4359 24.4695 94.4359 22.8304C94.4359 21.1913 94.8204 19.7243 95.5893 18.4292C96.3583 17.1139 97.4105 16.0819 98.746 15.3332C100.082 14.5845 101.579 14.2102 103.238 14.2102C104.473 14.2102 105.616 14.4226 106.668 14.8476C107.72 15.2725 108.621 15.8695 109.37 16.6384C110.118 17.3871 110.655 18.2775 110.978 19.3095L107.032 21.0092C106.749 20.1796 106.263 19.5219 105.575 19.0363C104.908 18.5506 104.129 18.3078 103.238 18.3078C102.449 18.3078 101.741 18.5 101.114 18.8845C100.506 19.269 100.021 19.8052 99.6566 20.4932C99.3126 21.1812 99.1406 21.9704 99.1406 22.8607C99.1406 23.7511 99.3126 24.5403 99.6566 25.2283C100.021 25.9163 100.506 26.4525 101.114 26.837C101.741 27.2215 102.449 27.4137 103.238 27.4137C104.149 27.4137 104.938 27.1709 105.606 26.6852C106.274 26.1996 106.749 25.5419 107.032 24.7123L110.978 26.4424C110.675 27.4137 110.149 28.2838 109.4 29.0527C108.651 29.8217 107.751 30.4287 106.698 30.8739C105.646 31.2989 104.493 31.5113 103.238 31.5113Z" fill="#D2D3D5"/>
<path d="M121.885 31.5113C120.246 31.5113 118.748 31.137 117.393 30.3883C116.057 29.6396 114.985 28.6177 114.175 27.3226C113.386 26.0073 112.992 24.52 112.992 22.8607C112.992 21.1812 113.386 19.6939 114.175 18.3989C114.985 17.1038 116.057 16.0819 117.393 15.3332C118.748 14.5845 120.246 14.2102 121.885 14.2102C123.524 14.2102 125.011 14.5845 126.347 15.3332C127.682 16.0819 128.745 17.1038 129.534 18.3989C130.343 19.6939 130.748 21.1812 130.748 22.8607C130.748 24.52 130.343 26.0073 129.534 27.3226C128.745 28.6177 127.682 29.6396 126.347 30.3883C125.011 31.137 123.524 31.5113 121.885 31.5113ZM121.885 27.4137C122.715 27.4137 123.433 27.2215 124.04 26.837C124.667 26.4525 125.153 25.9163 125.497 25.2283C125.861 24.5403 126.043 23.7511 126.043 22.8607C126.043 21.9704 125.861 21.1913 125.497 20.5236C125.153 19.8356 124.667 19.2993 124.04 18.9149C123.433 18.5102 122.715 18.3078 121.885 18.3078C121.055 18.3078 120.327 18.5102 119.7 18.9149C119.072 19.2993 118.576 19.8356 118.212 20.5236C117.868 21.1913 117.696 21.9704 117.696 22.8607C117.696 23.7511 117.868 24.5403 118.212 25.2283C118.576 25.9163 119.072 26.4525 119.7 26.837C120.327 27.2215 121.055 27.4137 121.885 27.4137Z" fill="#D2D3D5"/>
<path d="M133.43 31.1471V14.5744H137.68V18.5506L137.376 17.9739C137.74 16.5777 138.337 15.6367 139.167 15.1511C140.017 14.6452 141.018 14.3923 142.172 14.3923H143.143V18.3382H141.717C140.604 18.3382 139.703 18.6822 139.015 19.3702C138.327 20.0379 137.983 20.989 137.983 22.2233V31.1471H133.43Z" fill="#D2D3D5"/>
<path d="M152.939 31.5113C151.32 31.5113 149.874 31.1269 148.599 30.3579C147.324 29.589 146.312 28.5469 145.564 27.2316C144.835 25.9163 144.471 24.4593 144.471 22.8607C144.471 21.2419 144.845 19.785 145.594 18.4899C146.343 17.1746 147.354 16.1325 148.629 15.3636C149.904 14.5946 151.331 14.2102 152.909 14.2102C154.123 14.2102 155.196 14.4429 156.126 14.9083C157.077 15.3535 157.826 15.9909 158.372 16.8205L157.674 17.7311V8.16992H162.227V31.1471H157.978V28.1118L158.403 29.0527C157.836 29.8622 157.067 30.4793 156.096 30.9043C155.125 31.309 154.072 31.5113 152.939 31.5113ZM153.486 27.4137C154.315 27.4137 155.044 27.2215 155.671 26.837C156.298 26.4525 156.784 25.9163 157.128 25.2283C157.492 24.5403 157.674 23.7511 157.674 22.8607C157.674 21.9704 157.492 21.1812 157.128 20.4932C156.784 19.8052 156.298 19.269 155.671 18.8845C155.044 18.5 154.315 18.3078 153.486 18.3078C152.656 18.3078 151.907 18.5102 151.24 18.9149C150.592 19.2993 150.086 19.8356 149.722 20.5236C149.358 21.1913 149.176 21.9704 149.176 22.8607C149.176 23.7511 149.358 24.5403 149.722 25.2283C150.086 25.9163 150.592 26.4525 151.24 26.837C151.907 27.2215 152.656 27.4137 153.486 27.4137Z" fill="#D2D3D5"/>
<g style="mix-blend-mode:luminosity" clip-path="url(#clip0_84_1103)">
<path d="M0.0883789 19.1322C0.0883789 23.9958 2.02044 28.6602 5.45952 32.0993C8.89861 35.5384 13.563 37.4704 18.4266 37.4704C23.2902 37.4704 27.9546 35.5384 31.3937 32.0993C34.8328 28.6602 36.7648 23.9958 36.7648 19.1322C36.7648 14.2686 34.8328 9.60418 31.3937 6.16509C27.9546 2.726 23.2902 0.793945 18.4266 0.793945C13.563 0.793945 8.89861 2.726 5.45952 6.16509C2.02044 9.60418 0.0883789 14.2686 0.0883789 19.1322Z" fill="#738BD8"/>
<path d="M6.92627 9.18604H29.9268V26.281H6.92627V9.18604Z" fill="#1D1F2B"/>
<path d="M25.0944 34.185L5.72212 31.6984C3.62934 31.4298 3.73787 24.8514 3.92197 22.7495L4.85442 12.104C5.03852 10.0021 7.51762 7.7981 9.60732 7.50648L26.3138 5.17534C28.4035 4.88379 32.662 12.7918 32.6208 14.9013L32.31 30.8437M18.4268 11.5523C14.3312 11.5523 11.4583 13.3097 11.4583 13.3097C13.0323 11.9038 15.783 11.0938 15.783 11.0938L15.5232 10.834C12.9406 10.8799 10.6025 12.6679 10.6025 12.6679C7.974 18.154 8.14209 22.8914 8.14209 22.8914C10.2816 25.6575 13.4602 25.4588 13.4602 25.4588L14.5452 24.0834C12.635 23.6708 11.4277 21.9745 11.4277 21.9745C11.4277 21.9745 14.3007 23.9306 18.4268 23.9306C22.5529 23.9306 25.4259 21.9745 25.4259 21.9745C25.4259 21.9745 24.2186 23.6708 22.3084 24.0834L23.3934 25.4588C23.3934 25.4588 26.572 25.6575 28.7115 22.8914C28.7115 22.8914 28.8796 18.154 26.2511 12.6679C26.2511 12.6679 23.913 10.8799 21.3304 10.834L21.0705 11.0938C21.0705 11.0938 23.8213 11.9038 25.3953 13.3097C25.3953 13.3097 22.5223 11.5523 18.4268 11.5523ZM15.2634 17.3441C16.2568 17.3441 17.0667 18.2152 17.0514 19.2849C17.0514 20.3394 16.2568 21.2257 15.2634 21.2257C14.2854 21.2257 13.4908 20.3394 13.4908 19.2849C13.4908 18.2152 14.2701 17.3441 15.2634 17.3441ZM21.636 17.3441C22.6293 17.3441 23.424 18.2152 23.424 19.2849C23.424 20.3394 22.6293 21.2257 21.636 21.2257C20.6579 21.2257 19.8633 20.3394 19.8633 19.2849C19.8633 18.2152 20.6427 17.3441 21.636 17.3441Z" fill="#738BD8"/>
</g>
<defs>
<clipPath id="clip0_84_1103">
<rect width="36.6765" height="36.6765" fill="white" transform="translate(0.0883789 0.793945)"/>
</clipPath>
</defs>
</svg>
