<svg width="189" height="36" viewBox="0 0 189 36" fill="none" xmlns="http://www.w3.org/2000/svg">
<path d="M13.1968 5.19092H39.5906V28.6521H13.1968V5.19092Z" fill="#1D1F2B"/>
<path d="M49.5324 5.55591C48.9509 3.39285 47.2345 1.6893 45.0608 1.11211C41.1142 0.0585939 25.2941 0.0585938 25.2941 0.0585938C25.2941 0.0585938 9.474 0.0585935 5.52744 1.1065C3.34808 1.68369 1.63734 3.38725 1.0558 5.55031C-2.26147e-07 9.47296 0 17.6545 0 17.6545C0 17.6545 -2.26147e-07 25.836 1.0558 29.7531C1.63734 31.9162 3.35373 33.6197 5.52744 34.1969C9.474 35.2504 25.2941 35.2504 25.2941 35.2504C25.2941 35.2504 41.1142 35.2504 45.0608 34.1969C47.2402 33.6197 48.9509 31.9162 49.5324 29.7531C50.5882 25.836 50.5882 17.6545 50.5882 17.6545C50.5882 17.6545 50.5882 9.47297 49.5324 5.55591ZM20.2692 25.1636V10.1454L33.3679 17.5985L20.2692 25.1636Z" fill="#8A8C98"/>
<path d="M68.923 29.1471V19.2824L61.3955 6.53416H66.768L72.2315 16.1257H70.3193L75.7525 6.53416H81.1249L73.6277 19.252V29.1471H68.923Z" fill="#D2D3D5"/>
<path d="M88.623 29.5113C86.984 29.5113 85.4866 29.137 84.1308 28.3883C82.7953 27.6396 81.7228 26.6177 80.9134 25.3226C80.1242 24.0073 79.7296 22.52 79.7296 20.8607C79.7296 19.1812 80.1242 17.6939 80.9134 16.3989C81.7228 15.1038 82.7953 14.0819 84.1308 13.3332C85.4866 12.5845 86.984 12.2102 88.623 12.2102C90.2621 12.2102 91.7494 12.5845 93.0849 13.3332C94.4205 14.0819 95.4828 15.1038 96.272 16.3989C97.0814 17.6939 97.4861 19.1812 97.4861 20.8607C97.4861 22.52 97.0814 24.0073 96.272 25.3226C95.4828 26.6177 94.4205 27.6396 93.0849 28.3883C91.7494 29.137 90.2621 29.5113 88.623 29.5113ZM88.623 25.4137C89.4527 25.4137 90.171 25.2215 90.7781 24.837C91.4054 24.4525 91.891 23.9163 92.235 23.2283C92.5993 22.5403 92.7814 21.7511 92.7814 20.8607C92.7814 19.9704 92.5993 19.1913 92.235 18.5236C91.891 17.8356 91.4054 17.2993 90.7781 16.9149C90.171 16.5102 89.4527 16.3078 88.623 16.3078C87.7934 16.3078 87.0649 16.5102 86.4376 16.9149C85.8103 17.2993 85.3146 17.8356 84.9503 18.5236C84.6063 19.1913 84.4343 19.9704 84.4343 20.8607C84.4343 21.7511 84.6063 22.5403 84.9503 23.2283C85.3146 23.9163 85.8103 24.4525 86.4376 24.837C87.0649 25.2215 87.7934 25.4137 88.623 25.4137Z" fill="#D2D3D5"/>
<path d="M106.117 29.5113C104.782 29.5113 103.639 29.228 102.688 28.6615C101.757 28.0746 101.049 27.2652 100.563 26.2332C100.077 25.2012 99.8344 23.9972 99.8344 22.6212V12.5744H104.387V22.257C104.387 22.8843 104.509 23.4407 104.752 23.9264C105.015 24.3918 105.379 24.756 105.844 25.0191C106.31 25.2822 106.836 25.4137 107.423 25.4137C108.03 25.4137 108.556 25.2822 109.001 25.0191C109.466 24.756 109.821 24.3918 110.063 23.9264C110.326 23.4407 110.458 22.8843 110.458 22.257V12.5744H115.011V29.1471H110.761V25.869L111.004 26.5975C110.62 27.589 109.993 28.3276 109.122 28.8132C108.273 29.2786 107.271 29.5113 106.117 29.5113Z" fill="#D2D3D5"/>
<path d="M122.74 29.1471V10.6318H117.003V6.53416H133.09V10.6318H127.444V29.1471H122.74Z" fill="#D2D3D5"/>
<path d="M139.82 29.5113C138.484 29.5113 137.341 29.228 136.39 28.6615C135.459 28.0746 134.751 27.2652 134.265 26.2332C133.78 25.2012 133.537 23.9972 133.537 22.6212V12.5744H138.09V22.257C138.09 22.8843 138.211 23.4407 138.454 23.9264C138.717 24.3918 139.081 24.756 139.547 25.0191C140.012 25.2822 140.538 25.4137 141.125 25.4137C141.732 25.4137 142.258 25.2822 142.703 25.0191C143.169 24.756 143.523 24.3918 143.766 23.9264C144.029 23.4407 144.16 22.8843 144.16 22.257V12.5744H148.713V29.1471H144.464V25.869L144.707 26.5975C144.322 27.589 143.695 28.3276 142.825 28.8132C141.975 29.2786 140.973 29.5113 139.82 29.5113Z" fill="#D2D3D5"/>
<path d="M161.329 29.5113C160.196 29.5113 159.144 29.309 158.172 28.9043C157.221 28.4793 156.452 27.8622 155.865 27.0527L156.29 26.1118V29.1471H152.041V6.16992H156.594V15.7311L155.896 14.8205C156.442 13.9909 157.181 13.3535 158.112 12.9083C159.063 12.4429 160.145 12.2102 161.359 12.2102C162.938 12.2102 164.364 12.5946 165.639 13.3636C166.914 14.1325 167.926 15.1746 168.674 16.4899C169.423 17.785 169.797 19.2419 169.797 20.8607C169.797 22.4593 169.423 23.9163 168.674 25.2316C167.946 26.5469 166.944 27.589 165.669 28.3579C164.395 29.1269 162.948 29.5113 161.329 29.5113ZM160.783 25.4137C161.633 25.4137 162.381 25.2215 163.029 24.837C163.676 24.4525 164.182 23.9163 164.546 23.2283C164.911 22.5403 165.093 21.7511 165.093 20.8607C165.093 19.9704 164.911 19.1913 164.546 18.5236C164.182 17.8356 163.676 17.2993 163.029 16.9149C162.381 16.5102 161.633 16.3078 160.783 16.3078C159.973 16.3078 159.245 16.5 158.597 16.8845C157.97 17.269 157.474 17.8052 157.11 18.4932C156.766 19.1812 156.594 19.9704 156.594 20.8607C156.594 21.7511 156.766 22.5403 157.11 23.2283C157.474 23.9163 157.97 24.4525 158.597 24.837C159.245 25.2215 159.973 25.4137 160.783 25.4137Z" fill="#D2D3D5"/>
<path d="M180.447 29.5113C178.686 29.5113 177.159 29.1269 175.864 28.3579C174.569 27.5687 173.567 26.5165 172.859 25.2012C172.15 23.8859 171.796 22.429 171.796 20.8304C171.796 19.1711 172.161 17.6939 172.889 16.3989C173.638 15.1038 174.639 14.0819 175.894 13.3332C177.149 12.5845 178.565 12.2102 180.143 12.2102C181.459 12.2102 182.622 12.4226 183.634 12.8476C184.646 13.2523 185.496 13.829 186.184 14.5777C186.892 15.3264 187.428 16.1965 187.792 17.188C188.157 18.1593 188.339 19.2217 188.339 20.3751C188.339 20.6989 188.318 21.0226 188.278 21.3464C188.258 21.6499 188.207 21.913 188.126 22.1356H175.712V18.7967H185.546L183.391 20.3751C183.593 19.505 183.583 18.736 183.361 18.0683C183.138 17.3803 182.744 16.844 182.177 16.4596C181.631 16.0549 180.953 15.8525 180.143 15.8525C179.354 15.8525 178.676 16.0447 178.11 16.4292C177.543 16.8137 177.118 17.3803 176.835 18.129C176.552 18.8777 176.44 19.7883 176.501 20.8607C176.42 21.7916 176.531 22.6111 176.835 23.3193C177.138 24.0276 177.604 24.584 178.231 24.9887C178.858 25.3732 179.617 25.5655 180.508 25.5655C181.317 25.5655 182.005 25.4036 182.572 25.0798C183.158 24.756 183.614 24.3109 183.937 23.7443L187.58 25.4744C187.256 26.2838 186.74 26.992 186.032 27.5991C185.344 28.2062 184.524 28.6817 183.573 29.0257C182.622 29.3495 181.58 29.5113 180.447 29.5113Z" fill="#D2D3D5"/>
</svg>
