<svg width="159" height="43" viewBox="0 0 159 43" fill="none" xmlns="http://www.w3.org/2000/svg">
<path d="M66.2831 34.5113C64.6643 34.5113 63.1568 34.2179 61.7606 33.6311C60.3643 33.0443 59.1401 32.2247 58.0878 31.1725C57.0356 30.1203 56.2161 28.8859 55.6293 27.4695C55.0424 26.053 54.749 24.505 54.749 22.8255C54.749 21.1459 55.0323 19.5979 55.5989 18.1815C56.1655 16.7447 56.9648 15.5104 57.9968 14.4784C59.0288 13.4262 60.2328 12.6167 61.6088 12.0502C63.005 11.4633 64.5227 11.1699 66.1617 11.1699C67.8008 11.1699 69.2678 11.4431 70.5629 11.9895C71.8782 12.5358 72.9911 13.2643 73.9017 14.1749C74.8123 15.0855 75.4598 16.0972 75.8443 17.2102L71.686 19.2135C71.3015 18.1207 70.6236 17.2203 69.6523 16.512C68.7013 15.7836 67.5377 15.4193 66.1617 15.4193C64.8262 15.4193 63.6526 15.733 62.6408 16.3603C61.629 16.9876 60.8398 17.8577 60.2733 18.9706C59.7269 20.0633 59.4537 21.3483 59.4537 22.8255C59.4537 24.3026 59.7471 25.5977 60.334 26.7106C60.9208 27.8236 61.7201 28.6937 62.7318 29.321C63.7638 29.9483 64.9476 30.2619 66.2831 30.2619C67.3151 30.2619 68.2763 30.0697 69.1667 29.6852C70.0773 29.2805 70.8057 28.7038 71.3521 27.9551C71.9187 27.2064 72.202 26.3059 72.202 25.2537V23.3718L74.357 25.193H66.1617V21.2471H76.9067V23.645C76.9067 25.4864 76.6031 27.0951 75.9961 28.4711C75.389 29.8269 74.5695 30.96 73.5375 31.8706C72.5257 32.761 71.3824 33.4287 70.1076 33.8739C68.853 34.2989 67.5782 34.5113 66.2831 34.5113Z" fill="#D2D3D5"/>
<path d="M79.4779 34.1471V17.5744H84.0308V34.1471H79.4779ZM79.4779 16.0871V11.5342H84.0308V16.0871H79.4779Z" fill="#D2D3D5"/>
<path d="M95.3454 34.3292C93.3421 34.3292 91.784 33.793 90.671 32.7205C89.5783 31.6278 89.032 30.1102 89.032 28.1676V21.5203H86.2395V17.5744H86.3913C87.2411 17.5744 87.8887 17.3619 88.3338 16.937C88.7993 16.512 89.032 15.8746 89.032 15.0247V13.8106H93.5849V17.5744H97.4701V21.5203H93.5849V27.864C93.5849 28.4306 93.6861 28.9062 93.8884 29.2906C94.0908 29.6549 94.4044 29.928 94.8294 30.1102C95.2543 30.2923 95.7804 30.3833 96.4077 30.3833C96.5494 30.3833 96.7113 30.3732 96.8934 30.353C97.0755 30.3327 97.2677 30.3125 97.4701 30.2923V34.1471C97.1665 34.1876 96.8225 34.228 96.4381 34.2685C96.0536 34.309 95.6894 34.3292 95.3454 34.3292Z" fill="#D2D3D5"/>
<path d="M100.472 34.1471V11.5342H105.177V21.3078H113.979V11.5342H118.684V34.1471H113.979V25.4055H105.177V34.1471H100.472Z" fill="#D2D3D5"/>
<path d="M128.318 34.5113C126.983 34.5113 125.84 34.228 124.889 33.6615C123.958 33.0746 123.249 32.2652 122.764 31.2332C122.278 30.2012 122.035 28.9972 122.035 27.6212V17.5744H126.588V27.257C126.588 27.8843 126.71 28.4407 126.953 28.9264C127.216 29.3918 127.58 29.756 128.045 30.0191C128.511 30.2822 129.037 30.4137 129.624 30.4137C130.231 30.4137 130.757 30.2822 131.202 30.0191C131.667 29.756 132.021 29.3918 132.264 28.9264C132.527 28.4407 132.659 27.8843 132.659 27.257V17.5744H137.212V34.1471H132.962V30.869L133.205 31.5975C132.821 32.589 132.193 33.3276 131.323 33.8132C130.473 34.2786 129.472 34.5113 128.318 34.5113Z" fill="#D2D3D5"/>
<path d="M149.827 34.5113C148.694 34.5113 147.642 34.309 146.671 33.9043C145.72 33.4793 144.951 32.8622 144.364 32.0527L144.789 31.1118V34.1471H140.539V11.1699H145.092V20.7311L144.394 19.8205C144.941 18.9909 145.679 18.3535 146.61 17.9083C147.561 17.4429 148.644 17.2102 149.858 17.2102C151.436 17.2102 152.863 17.5946 154.138 18.3636C155.412 19.1325 156.424 20.1746 157.173 21.4899C157.922 22.785 158.296 24.2419 158.296 25.8607C158.296 27.4593 157.922 28.9163 157.173 30.2316C156.444 31.5469 155.443 32.589 154.168 33.3579C152.893 34.1269 151.446 34.5113 149.827 34.5113ZM149.281 30.4137C150.131 30.4137 150.88 30.2215 151.527 29.837C152.175 29.4525 152.681 28.9163 153.045 28.2283C153.409 27.5403 153.591 26.7511 153.591 25.8607C153.591 24.9704 153.409 24.1913 153.045 23.5236C152.681 22.8356 152.175 22.2993 151.527 21.9149C150.88 21.5102 150.131 21.3078 149.281 21.3078C148.472 21.3078 147.743 21.5 147.096 21.8845C146.468 22.269 145.973 22.8052 145.608 23.4932C145.264 24.1812 145.092 24.9704 145.092 25.8607C145.092 26.7511 145.264 27.5403 145.608 28.2283C145.973 28.9163 146.468 29.4525 147.096 29.837C147.743 30.2215 148.472 30.4137 149.281 30.4137Z" fill="#D2D3D5"/>
<path d="M21.6009 3.2041C11.2162 3.1999 2.80518 11.6067 2.80518 21.983C2.80518 30.1883 8.0668 37.1632 15.3944 39.7247C16.3812 39.9725 16.2301 39.2712 16.2301 38.7925V35.5381C10.5317 36.2058 10.3008 32.4349 9.91865 31.805C9.146 30.4864 7.31934 30.1505 7.86523 29.5206C9.16279 28.8529 10.4855 29.6886 12.0183 31.952C13.1269 33.5938 15.2895 33.3167 16.3854 33.0438C16.6248 32.0569 17.1371 31.1751 17.8426 30.4906C11.9385 29.4324 9.47773 25.8295 9.47773 21.5463C9.47773 19.4677 10.1622 17.557 11.506 16.0159C10.6493 13.4754 11.5857 11.3002 11.7117 10.9769C14.1515 10.7585 16.6878 12.7237 16.8852 12.8791C18.2709 12.5054 19.854 12.308 21.6261 12.308C23.4065 12.308 24.9938 12.5138 26.3922 12.8917C26.8667 12.5306 29.2183 10.8425 31.4858 11.0482C31.6076 11.3716 32.523 13.4964 31.7168 16.0033C33.0773 17.5486 33.7702 19.4761 33.7702 21.5589C33.7702 25.8505 31.2927 29.4576 25.3718 30.499C26.3586 31.4732 26.9717 32.8254 26.9717 34.3203V39.0444C27.0053 39.4224 26.9717 39.7961 27.6016 39.7961C35.0384 37.2892 40.3924 30.2639 40.3924 21.9872C40.3924 11.6067 31.9771 3.2041 21.6009 3.2041Z" fill="#8A8C98"/>
</svg>
