<svg width="580" height="380" viewBox="0 0 580 380" fill="none" xmlns="http://www.w3.org/2000/svg">
<mask id="mask0_62_1833" style="mask-type:alpha" maskUnits="userSpaceOnUse" x="0" y="0" width="580" height="380">
<rect width="580" height="380" fill="#D9D9D9"/>
</mask>
<g mask="url(#mask0_62_1833)">
<g filter="url(#filter0_d_62_1833)">
<mask id="mask1_62_1833" style="mask-type:alpha" maskUnits="userSpaceOnUse" x="108" y="98" width="375" height="184">
<rect x="108" y="98" width="374.091" height="183.471" fill="#D9D9D9"/>
</mask>
<g mask="url(#mask1_62_1833)">
<path d="M223.192 217.574C230.066 217.574 239.11 214.293 251.298 205.922C257.763 201.471 264.378 196.114 271.305 190.101C264.377 184.088 257.762 178.731 251.296 174.28L223.192 217.574ZM223.192 217.574C208.372 217.574 195.719 204.921 195.719 190.101M223.192 217.574L195.719 190.101M195.719 190.101C195.719 175.281 208.372 162.628 223.192 162.628M195.719 190.101L223.192 162.628M223.192 162.628C230.071 162.628 239.075 165.872 251.294 174.278L223.192 162.628ZM358.162 205.924C370.382 214.33 379.385 217.574 386.264 217.574C401.084 217.574 413.737 204.921 413.737 190.101C413.737 175.281 401.084 162.628 386.264 162.628C379.392 162.628 370.349 165.909 358.162 174.278V205.924ZM358.162 205.924C351.696 201.473 345.08 196.115 338.151 190.101C345.08 184.087 351.695 178.73 358.162 174.279L358.162 205.924ZM332.844 137.404L332.837 137.409L332.831 137.413C323.188 144.049 313.731 151.937 304.739 159.893C295.739 151.907 286.273 144.017 276.617 137.407C261.62 127.085 243.466 117.914 223.192 117.914C183.637 117.914 151.005 150.596 151.005 190.101C151.005 229.61 183.684 262.288 223.192 262.288C243.478 262.288 261.638 253.063 276.612 242.799L276.619 242.794L276.626 242.789C286.268 236.153 295.725 228.265 304.717 220.31C313.718 228.296 323.185 236.187 332.841 242.796C347.837 253.119 365.991 262.288 386.264 262.288C425.819 262.288 458.451 229.606 458.451 190.101C458.451 150.596 425.819 117.914 386.264 117.914C365.978 117.914 347.819 127.14 332.844 137.404Z" fill="url(#paint0_linear_62_1833)" stroke="url(#paint1_linear_62_1833)" stroke-width="17.5497"/>
<path opacity="0.61" d="M304.566 231.989L257.401 190.308C245.336 199.083 240.948 202.374 227.786 207.858L257.401 263.798C278.461 255.023 297.619 238.936 304.566 231.989Z" fill="url(#paint2_linear_62_1833)"/>
<path opacity="0.74" d="M303.953 148.635L351.118 190.31C362.086 180.44 367.57 177.149 380.733 171.665L348.924 117.923C328.391 127.868 311.631 140.957 303.953 148.635Z" fill="url(#paint3_linear_62_1833)"/>
<path fill-rule="evenodd" clip-rule="evenodd" d="M140.036 189.796C140.036 144.585 177.702 107.531 223.06 107.531C246.698 107.531 268.756 118.499 288.665 133.723L288.957 133.946L331.373 169.723C336.576 164.099 345.013 156.737 354.816 150.938C364.838 145.01 379.218 138.973 394.09 141.805C410.593 144.949 420.693 154.608 426.386 163.247C429.177 167.481 430.944 171.494 432.027 174.48C432.574 175.986 432.961 177.271 433.225 178.245C433.358 178.733 433.46 179.147 433.537 179.476C433.544 179.506 433.551 179.535 433.557 179.564C433.562 179.581 433.566 179.599 433.571 179.616C433.653 179.939 433.75 180.341 433.852 180.814C434.055 181.758 434.282 183.002 434.464 184.495C434.825 187.46 435.022 191.539 434.419 196.265C433.177 205.994 428.552 218.048 416.256 228.038C399.932 241.302 382.021 239.772 369.949 235.885C363.942 233.951 358.952 231.341 355.501 229.264C353.752 228.212 352.339 227.26 351.321 226.538C350.81 226.176 350.395 225.868 350.082 225.632C349.926 225.513 349.794 225.412 349.69 225.331L349.552 225.223L349.498 225.18L349.464 225.153C349.459 225.149 349.454 225.145 359.054 213.159L349.454 225.145L349.302 225.023L269.723 157.902C252.455 144.754 237.019 138.243 223.06 138.243C194.349 138.243 170.748 161.859 170.748 189.796C170.748 217.725 194.388 241.348 223.06 241.348C236.567 241.348 249.848 236.333 261.121 229.739C272.425 223.126 279.888 215.566 282.58 212.489L305.983 233.055C300.997 238.754 290.637 248.053 276.629 256.248C262.589 264.461 243.893 272.06 223.06 272.06C177.754 272.06 140.036 235.013 140.036 189.796ZM368.69 201.198C368.778 201.263 368.911 201.361 369.086 201.486C369.562 201.823 370.331 202.345 371.338 202.951C373.398 204.191 376.209 205.636 379.362 206.651C385.611 208.663 391.46 208.614 396.889 204.202C402.143 199.934 403.551 195.534 403.954 192.376C404.173 190.658 404.096 189.184 403.977 188.207C403.921 187.75 403.861 187.434 403.831 187.292L403.714 186.894L403.616 186.404C403.608 186.375 403.597 186.334 403.583 186.282C403.518 186.039 403.382 185.576 403.158 184.957C402.699 183.692 401.929 181.947 400.743 180.148C398.485 176.721 394.873 173.219 388.343 171.975C384.615 171.265 378.412 172.663 370.453 177.372C364.013 181.181 358.341 186.032 354.89 189.558L368.69 201.198Z" fill="url(#paint4_linear_62_1833)"/>
<path opacity="0.69" d="M331.288 169.886L354.867 189.797C364.086 180.578 372.682 175.65 376.35 174.078L362.717 146.537C349.103 153.119 336.004 164.122 331.288 169.886Z" fill="url(#paint5_linear_62_1833)"/>
<path opacity="0.69" d="M305.984 233.058L282.581 212.491C274.78 221.001 264.142 228.093 260.972 229.699L275.231 257.12C289.673 249.369 300.596 238.637 305.984 233.058Z" fill="url(#paint6_linear_62_1833)"/>
</g>
</g>
</g>
<defs>
<filter id="filter0_d_62_1833" x="-9.6003" y="-20.7283" width="626.462" height="463.801" filterUnits="userSpaceOnUse" color-interpolation-filters="sRGB">
<feFlood flood-opacity="0" result="BackgroundImageFix"/>
<feColorMatrix in="SourceAlpha" type="matrix" values="0 0 0 0 0 0 0 0 0 0 0 0 0 0 0 0 0 0 127 0" result="hardAlpha"/>
<feOffset dy="21.3766"/>
<feGaussianBlur stdDeviation="74.8182"/>
<feComposite in2="hardAlpha" operator="out"/>
<feColorMatrix type="matrix" values="0 0 0 0 0 0 0 0 0 0 0 0 0 0 0 0 0 0 0.99 0"/>
<feBlend mode="normal" in2="BackgroundImageFix" result="effect1_dropShadow_62_1833"/>
<feBlend mode="normal" in="SourceGraphic" in2="effect1_dropShadow_62_1833" result="shape"/>
</filter>
<linearGradient id="paint0_linear_62_1833" x1="159.78" y1="165.079" x2="462.513" y2="160.692" gradientUnits="userSpaceOnUse">
<stop stop-color="#FCBA33"/>
<stop offset="0.177083" stop-color="#EA5A1E"/>
<stop offset="0.385417" stop-color="#FD52F7"/>
<stop offset="0.598958" stop-color="#3567D0"/>
<stop offset="0.776042" stop-color="#39E4D7"/>
<stop offset="1" stop-color="#50FBB3"/>
</linearGradient>
<linearGradient id="paint1_linear_62_1833" x1="159.78" y1="165.079" x2="462.513" y2="160.692" gradientUnits="userSpaceOnUse">
<stop stop-color="#FCBA33"/>
<stop offset="0.177083" stop-color="#EA5A1E"/>
<stop offset="0.385417" stop-color="#FD52F7"/>
<stop offset="0.598958" stop-color="#3567D0"/>
<stop offset="0.776042" stop-color="#39E4D7"/>
<stop offset="1" stop-color="#50FBB3"/>
</linearGradient>
<linearGradient id="paint2_linear_62_1833" x1="277.145" y1="203.471" x2="238.755" y2="226.505" gradientUnits="userSpaceOnUse">
<stop stop-color="#6115B5"/>
<stop offset="1" stop-color="#6314BB" stop-opacity="0"/>
</linearGradient>
<linearGradient id="paint3_linear_62_1833" x1="330.335" y1="178.732" x2="367.369" y2="153.576" gradientUnits="userSpaceOnUse">
<stop stop-color="#6115B5"/>
<stop offset="1" stop-color="#6314BB" stop-opacity="0"/>
</linearGradient>
<linearGradient id="paint4_linear_62_1833" x1="147.714" y1="53.7855" x2="417.807" y2="247.987" gradientUnits="userSpaceOnUse">
<stop stop-color="#FC9233"/>
<stop offset="0.230527" stop-color="#EA5A1E"/>
<stop offset="0.347825" stop-color="#F55693"/>
<stop offset="0.525743" stop-color="#4872F8"/>
<stop offset="0.616351" stop-color="#913DFD"/>
<stop offset="0.971488" stop-color="#00FFC2"/>
</linearGradient>
<linearGradient id="paint5_linear_62_1833" x1="342.955" y1="182.119" x2="368.183" y2="161.279" gradientUnits="userSpaceOnUse">
<stop stop-color="#102A7A"/>
<stop offset="1" stop-color="#6081E9" stop-opacity="0"/>
</linearGradient>
<linearGradient id="paint6_linear_62_1833" x1="294.006" y1="221.135" x2="269.145" y2="242.412" gradientUnits="userSpaceOnUse">
<stop stop-color="#58107A"/>
<stop offset="1" stop-color="#6081E9" stop-opacity="0"/>
</linearGradient>
</defs>
</svg>
