<svg width="194" height="36" viewBox="0 0 194 36" fill="none" xmlns="http://www.w3.org/2000/svg">
<mask id="mask0_62_1396" style="mask-type:alpha" maskUnits="userSpaceOnUse" x="0" y="0" width="73" height="36">
<rect width="72.0101" height="35.317" fill="#D9D9D9"/>
</mask>
<g mask="url(#mask0_62_1396)">
<path d="M43.2788 7.58676L43.2814 7.58497C46.1639 5.60915 49.6596 3.83336 53.5644 3.83336C61.1785 3.83336 67.4599 10.1245 67.4599 17.7289C67.4599 25.3333 61.1785 31.6244 53.5644 31.6244C49.6619 31.6244 46.1674 29.8592 43.2807 27.8722C43.28 27.8717 43.2793 27.8713 43.2786 27.8708L44.2364 26.4795C42.0673 24.995 39.9229 23.1393 37.8693 21.2753L43.2788 7.58676ZM43.2788 7.58676C41.4227 8.86414 39.6023 10.3825 37.8714 11.9139C36.1388 10.3766 34.3166 8.85779 32.458 7.58552C29.5712 5.59849 26.0767 3.83336 22.1742 3.83336C14.56 3.83336 8.27867 10.1245 8.27867 17.7289C8.27867 25.334 14.569 31.6244 22.1742 31.6244C26.079 31.6244 29.5747 29.8486 32.4572 27.8727L32.4598 27.871C34.3158 26.5936 36.1363 25.0752 37.8672 23.5438L43.2788 7.58676ZM22.1742 23.0172C23.4973 23.0172 25.2383 22.3855 27.5847 20.7739L22.1742 23.0172ZM22.1742 23.0172C19.3214 23.0172 16.8858 20.5816 16.8858 17.7289M22.1742 23.0172L16.8858 17.7289M16.8858 17.7289C16.8858 14.8761 19.3214 12.4405 22.1742 12.4405M16.8858 17.7289L22.1742 12.4405M22.1742 12.4405C23.4983 12.4405 25.2314 13.065 27.5835 14.683L22.1742 12.4405ZM27.584 14.6833C28.8286 15.5401 30.1019 16.5713 31.4356 17.7289C30.1023 18.8861 28.8293 19.9171 27.585 20.7738L27.584 14.6833ZM53.5644 23.0172C52.2403 23.0172 50.5072 22.3927 48.155 20.7747L48.1538 14.6838C50.5002 13.0722 52.2413 12.4405 53.5644 12.4405C56.4172 12.4405 58.8528 14.8761 58.8528 17.7289C58.8528 20.5816 56.4172 23.0172 53.5644 23.0172ZM48.1546 20.7744C46.91 19.9176 45.6367 18.8864 44.303 17.7289C45.6363 16.5716 46.9093 15.5407 48.1536 14.684L48.1546 20.7744Z" fill="url(#paint0_linear_62_1396)" stroke="url(#paint1_linear_62_1396)" stroke-width="3.3782"/>
<path opacity="0.61" d="M37.8382 25.7923L28.7593 17.769C26.4368 19.4581 25.5922 20.0916 23.0586 21.1472L28.7593 31.9153C32.8132 30.2262 36.501 27.1295 37.8382 25.7923Z" fill="url(#paint2_linear_62_1396)"/>
<path opacity="0.74" d="M37.7196 9.74712L46.7985 17.7693C48.9098 15.8693 49.9655 15.2359 52.4992 14.1802L46.3762 3.83526C42.4238 5.74961 39.1976 8.26916 37.7196 9.74712Z" fill="url(#paint3_linear_62_1396)"/>
<path fill-rule="evenodd" clip-rule="evenodd" d="M6.16699 17.6703C6.16699 8.96754 13.4174 1.83496 22.1485 1.83496C26.6987 1.83496 30.9447 3.94609 34.7771 6.87672L34.8332 6.91967L42.9981 13.8064C43.9996 12.7239 45.6237 11.3068 47.5108 10.1905C49.4399 9.04929 52.2079 7.88715 55.0706 8.43244C58.2475 9.03755 60.1916 10.897 61.2875 12.5598C61.8247 13.3749 62.1648 14.1473 62.3734 14.7221C62.4786 15.0121 62.5531 15.2594 62.604 15.4469C62.6294 15.5409 62.6492 15.6205 62.6639 15.6839C62.6653 15.6896 62.6666 15.6952 62.6679 15.7007C62.6687 15.704 62.6696 15.7074 62.6705 15.7108C62.6864 15.773 62.705 15.8503 62.7246 15.9413C62.7637 16.1231 62.8074 16.3626 62.8424 16.65C62.9119 17.2207 62.9498 18.0058 62.8337 18.9155C62.5946 20.7884 61.7044 23.1086 59.3375 25.0317C56.1951 27.5849 52.7475 27.2904 50.4237 26.5421C49.2674 26.1698 48.3068 25.6675 47.6425 25.2677C47.306 25.0652 47.0338 24.8818 46.8378 24.7428C46.7396 24.6732 46.6596 24.614 46.5994 24.5685C46.5693 24.5457 46.5441 24.5263 46.5239 24.5105L46.4974 24.4898L46.4871 24.4815L46.4805 24.4763C46.4796 24.4756 46.4786 24.4748 48.3265 22.1676L46.4786 24.4748L46.4493 24.4513L31.1309 11.5309C27.8068 9.00004 24.8355 7.74682 22.1485 7.74682C16.6219 7.74682 12.0788 12.2927 12.0788 17.6703C12.0788 23.0466 16.6294 27.5938 22.1485 27.5938C24.7485 27.5938 27.3051 26.6284 29.475 25.3591C31.6509 24.0861 33.0876 22.6309 33.6058 22.0387L38.1107 25.9975C37.1509 27.0943 35.1566 28.8845 32.4601 30.4619C29.7576 32.0429 26.1587 33.5056 22.1485 33.5056C13.4275 33.5056 6.16699 26.3743 6.16699 17.6703ZM50.1813 19.8652C50.1982 19.8778 50.2239 19.8965 50.2576 19.9205C50.3492 19.9854 50.4973 20.0859 50.6912 20.2026C51.0876 20.4412 51.6286 20.7194 52.2357 20.9148C53.4385 21.3021 54.5644 21.2926 55.6095 20.4435C56.6208 19.6218 56.8918 18.775 56.9694 18.1669C57.0116 17.8362 56.9968 17.5525 56.9739 17.3644C56.9632 17.2765 56.9515 17.2157 56.9457 17.1884L56.9232 17.1117L56.9043 17.0174C56.9029 17.0118 56.9008 17.0039 56.8981 16.9939C56.8854 16.9472 56.8594 16.8579 56.8161 16.7388C56.7278 16.4954 56.5796 16.1594 56.3514 15.8132C55.9166 15.1536 55.2215 14.4793 53.9645 14.2399C53.2468 14.1032 52.0528 14.3724 50.5207 15.2787C49.2811 16.012 48.1892 16.9458 47.5249 17.6245L50.1813 19.8652Z" fill="url(#paint4_linear_62_1396)"/>
<path opacity="0.69" d="M42.9814 13.8377L47.5202 17.6705C49.2949 15.8958 50.9495 14.9472 51.6556 14.6446L49.0314 9.34326C46.4108 10.6101 43.8892 12.7282 42.9814 13.8377Z" fill="url(#paint5_linear_62_1396)"/>
<path opacity="0.69" d="M38.1105 25.9981L33.6057 22.0391C32.1041 23.6773 30.0564 25.0424 29.446 25.3515L32.1909 30.6299C34.9708 29.1379 37.0734 27.072 38.1105 25.9981Z" fill="url(#paint6_linear_62_1396)"/>
</g>
<path d="M78.6391 11.6011H83.1608V26.2021H78.6391V11.6011ZM86.4376 11.6011H90.6506L96.1484 19.6785V11.6011H100.401V26.2021H96.1484L90.6804 18.1845V26.2021H86.4376V11.6011ZM103.419 11.6011H114.574V14.7384H107.951V17.2881H113.608V20.2362H107.951V26.2021H103.419V11.6011ZM117.183 11.6011H121.705V26.2021H117.183V11.6011ZM124.982 11.6011H129.195L134.693 19.6785V11.6011H138.946V26.2021H134.693L129.225 18.1845V26.2021H124.982V11.6011ZM142.123 11.6011H146.644V26.2021H142.123V11.6011ZM148.865 11.6011H162.58V15.2066H157.979V26.2021H153.467V15.2066H148.865V11.6011ZM173.616 23.7919H168.476L167.769 26.2021H163.158L168.646 11.6011H173.566L179.054 26.2021H174.333L173.616 23.7919ZM172.669 20.6346L171.056 15.3858L169.452 20.6346H172.669ZM179.721 21.3717L184.014 21.1027C184.107 21.7999 184.296 22.3311 184.581 22.6963C185.046 23.2873 185.71 23.5827 186.573 23.5827C187.217 23.5827 187.712 23.4333 188.057 23.1345C188.409 22.8291 188.585 22.4772 188.585 22.0788C188.585 21.7003 188.419 21.3617 188.087 21.0629C187.755 20.7641 186.985 20.4819 185.776 20.2163C183.798 19.7715 182.387 19.1805 181.544 18.4435C180.694 17.7065 180.269 16.7669 180.269 15.6249C180.269 14.8746 180.484 14.1674 180.916 13.5034C181.354 12.8328 182.008 12.3083 182.878 11.9298C183.755 11.5447 184.953 11.3521 186.474 11.3521C188.339 11.3521 189.76 11.7007 190.736 12.3979C191.719 13.0884 192.303 14.1907 192.489 15.7045L188.236 15.9535C188.124 15.2962 187.885 14.8181 187.519 14.5193C187.161 14.2205 186.663 14.0711 186.025 14.0711C185.501 14.0711 185.106 14.184 184.84 14.4098C184.575 14.6289 184.442 14.8978 184.442 15.2165C184.442 15.4489 184.551 15.6581 184.77 15.844C184.983 16.0365 185.488 16.2158 186.284 16.3818C188.256 16.8068 189.667 17.2383 190.517 17.6766C191.374 18.1082 191.995 18.646 192.38 19.2901C192.772 19.9341 192.967 20.6546 192.967 21.4513C192.967 22.3876 192.708 23.2507 192.191 24.0409C191.673 24.831 190.949 25.4319 190.019 25.8436C189.09 26.2486 187.918 26.4511 186.503 26.4511C184.02 26.4511 182.3 25.9731 181.344 25.0169C180.388 24.0608 179.847 22.8457 179.721 21.3717Z" fill="white"/>
<defs>
<linearGradient id="paint0_linear_62_1396" x1="9.96777" y1="12.9123" x2="68.2418" y2="12.0677" gradientUnits="userSpaceOnUse">
<stop stop-color="#FCBA33"/>
<stop offset="0.177083" stop-color="#EA5A1E"/>
<stop offset="0.385417" stop-color="#FD52F7"/>
<stop offset="0.598958" stop-color="#3567D0"/>
<stop offset="0.776042" stop-color="#39E4D7"/>
<stop offset="1" stop-color="#50FBB3"/>
</linearGradient>
<linearGradient id="paint1_linear_62_1396" x1="9.96777" y1="12.9123" x2="68.2418" y2="12.0677" gradientUnits="userSpaceOnUse">
<stop stop-color="#FCBA33"/>
<stop offset="0.177083" stop-color="#EA5A1E"/>
<stop offset="0.385417" stop-color="#FD52F7"/>
<stop offset="0.598958" stop-color="#3567D0"/>
<stop offset="0.776042" stop-color="#39E4D7"/>
<stop offset="1" stop-color="#50FBB3"/>
</linearGradient>
<linearGradient id="paint2_linear_62_1396" x1="32.5598" y1="20.3027" x2="25.17" y2="24.7366" gradientUnits="userSpaceOnUse">
<stop stop-color="#6115B5"/>
<stop offset="1" stop-color="#6314BB" stop-opacity="0"/>
</linearGradient>
<linearGradient id="paint3_linear_62_1396" x1="42.798" y1="15.5407" x2="49.9269" y2="10.6983" gradientUnits="userSpaceOnUse">
<stop stop-color="#6115B5"/>
<stop offset="1" stop-color="#6314BB" stop-opacity="0"/>
</linearGradient>
<linearGradient id="paint4_linear_62_1396" x1="7.64496" y1="-8.51079" x2="59.6361" y2="28.8718" gradientUnits="userSpaceOnUse">
<stop stop-color="#FC9233"/>
<stop offset="0.230527" stop-color="#EA5A1E"/>
<stop offset="0.347825" stop-color="#F55693"/>
<stop offset="0.525743" stop-color="#4872F8"/>
<stop offset="0.616351" stop-color="#913DFD"/>
<stop offset="0.971488" stop-color="#00FFC2"/>
</linearGradient>
<linearGradient id="paint5_linear_62_1396" x1="45.2273" y1="16.1925" x2="50.0835" y2="12.1808" gradientUnits="userSpaceOnUse">
<stop stop-color="#102A7A"/>
<stop offset="1" stop-color="#6081E9" stop-opacity="0"/>
</linearGradient>
<linearGradient id="paint6_linear_62_1396" x1="35.8049" y1="23.7031" x2="31.0193" y2="27.7987" gradientUnits="userSpaceOnUse">
<stop stop-color="#58107A"/>
<stop offset="1" stop-color="#6081E9" stop-opacity="0"/>
</linearGradient>
</defs>
</svg>
