<svg width="1440" height="954" viewBox="0 0 1440 954" fill="none" xmlns="http://www.w3.org/2000/svg">
<mask id="mask0_62_2238" style="mask-type:alpha" maskUnits="userSpaceOnUse" x="0" y="0" width="1440" height="954">
<rect width="1440" height="954" fill="#D9D9D9"/>
</mask>
<g mask="url(#mask0_62_2238)">
<rect x="-4" y="38" width="1458" height="459" fill="url(#paint0_linear_62_2238)"/>
<g opacity="0.3" filter="url(#filter0_d_62_2238)">
<mask id="mask1_62_2238" style="mask-type:alpha" maskUnits="userSpaceOnUse" x="-988" y="-257" width="1798" height="1296">
<rect x="-720.46" y="-257" width="1624.12" height="796.542" transform="rotate(19.6259 -720.46 -257)" fill="#D9D9D9"/>
</mask>
<g mask="url(#mask1_62_2238)">
<path d="M141.533 232.004L141.498 232.013L141.464 232.022C92.3573 245.098 42.1816 263.564 -6.19066 282.983C-31.3508 237.202 -58.5544 191.133 -88.4011 150.026C-134.675 85.9445 -195.54 21.9732 -278.445 -7.59005C-440.198 -65.27 -621.296 20.7928 -678.902 182.339C-736.514 343.901 -650.535 525.184 -488.973 582.796C-406.019 612.377 -318.305 601.133 -242.103 580.995L-242.069 580.986L-242.034 580.977C-192.928 567.901 -142.752 549.435 -94.3797 530.016C-69.2209 575.794 -42.0189 621.861 -12.1741 662.966C34.1001 727.05 94.967 791.025 177.875 820.589C339.628 878.269 520.725 792.206 578.332 630.66C635.938 469.113 550.155 287.883 388.402 230.203C305.448 200.622 217.735 211.866 141.533 232.004ZM-291.848 393.282C-353.896 409.741 -395.664 409.97 -423.77 399.947C-484.374 378.336 -517.664 308.145 -496.053 247.542C-474.442 186.938 -404.251 153.648 -343.648 175.259C-315.516 185.29 -283.427 211.687 -245.713 263.885C-225.763 291.515 -206.524 323.068 -186.961 357.762C-224.059 372.248 -258.919 384.508 -291.848 393.282ZM243.077 637.74C214.946 627.709 182.857 601.312 145.142 549.114C125.192 521.483 105.954 489.931 86.3905 455.237C123.489 440.75 158.348 428.49 191.278 419.717C253.326 403.258 295.093 403.029 323.2 413.052C383.803 434.662 417.094 504.854 395.483 565.457C373.872 626.061 303.681 659.351 243.077 637.74Z" fill="url(#paint1_linear_62_2238)" stroke="url(#paint2_linear_62_2238)" stroke-width="76.1921"/>
<path opacity="0.74" d="M7.00824 235.801L139.107 474.999C198.353 450.629 225.578 445.171 287.4 441.937L235.693 175.788C137.225 186.515 49.6019 215.6 7.00824 235.801Z" fill="url(#paint3_linear_62_2238)"/>
<path fill-rule="evenodd" clip-rule="evenodd" d="M-723.313 165.093C-657.387 -19.7859 -449.329 -116.385 -263.847 -50.2428C-167.183 -15.773 -92.9748 61.2401 -33.7616 152.529L-32.8937 153.867L88.3896 362.02C117.864 346.609 163.102 328.807 211.647 319.388C261.274 309.76 328.88 306.04 385.565 339.31C448.47 376.231 475.683 430.459 486.369 474.087C491.607 495.472 492.979 514.457 493.056 528.247C493.095 535.204 492.805 541.022 492.465 545.391C492.294 547.581 492.109 549.423 491.944 550.88C491.929 551.012 491.914 551.142 491.899 551.268C491.892 551.345 491.885 551.422 491.878 551.501C491.745 552.944 491.554 554.725 491.281 556.809C490.734 560.966 489.85 566.386 488.416 572.756C485.569 585.406 480.427 602.372 471.068 620.819C451.802 658.794 415.313 701.341 350.463 724.265C264.367 754.698 193.357 722.326 149.659 688.826C127.915 672.157 111.313 654.21 100.23 640.684C94.615 633.832 90.223 627.876 87.1122 623.438C85.5523 621.213 84.3018 619.352 83.3684 617.928C82.9013 617.216 82.5125 616.612 82.203 616.125L81.7977 615.483L81.6396 615.23L81.5405 615.07C81.5257 615.046 81.5112 615.022 138.244 580.008L81.5111 615.022L81.0668 614.302L-146.477 223.78C-197.921 144.834 -251.549 95.7026 -308.631 75.3473C-426.037 33.4813 -556.986 95.638 -597.723 209.878C-638.45 324.09 -576.226 455.162 -458.979 496.971C-403.745 516.668 -342.12 515.527 -286.409 504.999C-230.54 494.44 -188.997 474.409 -173.501 465.753L-107.79 583.98C-136.488 600.011 -192.416 622.932 -261.649 636.016C-331.038 649.129 -418.572 652.94 -503.764 622.562C-689.032 556.496 -789.249 350 -723.313 165.093ZM195.091 545.146C195.355 545.542 195.756 546.135 196.293 546.9C197.746 548.973 200.131 552.229 203.365 556.176C209.98 564.249 219.366 574.256 230.781 583.007C253.399 600.346 277.389 608.674 306.024 598.552C333.733 588.757 345.905 572.82 352.16 560.491C355.562 553.786 357.396 547.646 358.334 543.477C358.773 541.528 358.985 540.147 359.069 539.523L359.171 537.725L359.485 535.578C359.497 535.447 359.513 535.264 359.532 535.031C359.616 533.943 359.738 531.85 359.722 528.992C359.689 523.152 359.086 514.891 356.861 505.808C352.622 488.501 342.962 468.911 318.072 454.302C303.861 445.962 276.456 442.637 237.044 450.284C205.157 456.47 174.886 468.038 155.631 477.423L195.091 545.146Z" fill="url(#paint4_linear_62_2238)"/>
<path opacity="0.69" d="M87.8023 362.563L155.189 478.368C206.333 454.112 248.67 446.494 265.961 445.414L250.373 312.914C185.104 319.975 115.491 345.87 87.8023 362.563Z" fill="url(#paint5_linear_62_2238)"/>
</g>
</g>
<g opacity="0.53" filter="url(#filter1_d_62_2238)">
<mask id="mask2_62_2238" style="mask-type:alpha" maskUnits="userSpaceOnUse" x="915" y="93" width="775" height="559">
<rect x="915" y="328.252" width="699.727" height="343.178" transform="rotate(-19.6458 915 328.252)" fill="#D9D9D9"/>
</mask>
<g mask="url(#mask2_62_2238)">
<path d="M1335.86 256.27L1335.85 256.282L1335.84 256.294C1323.03 274.048 1311.33 293.891 1300.5 313.56C1279.62 305.152 1257.98 297.205 1236.81 291.634C1203.9 282.881 1166.16 278.144 1130.44 290.893C1060.76 315.768 1023.83 393.861 1048.68 463.452C1073.52 533.05 1151.64 570.066 1221.24 545.22C1256.97 532.464 1283.16 504.792 1303.08 477.294L1303.09 477.281L1303.1 477.269C1315.91 459.516 1327.61 439.673 1338.45 420.004C1359.33 428.412 1380.97 436.359 1402.14 441.93C1435.04 450.683 1472.79 455.42 1508.5 442.671C1578.18 417.796 1615.11 339.702 1590.27 270.111C1565.43 200.52 1487.39 163.468 1417.71 188.343C1381.98 201.1 1355.79 228.771 1335.86 256.27ZM1235.3 428.245C1219.1 450.661 1205.23 462.13 1193.12 466.453C1167.01 475.772 1136.76 461.44 1127.44 435.333C1118.12 409.226 1132.46 378.981 1158.56 369.661C1170.68 365.335 1188.58 365.388 1215.4 372.512C1229.59 376.287 1244.61 381.564 1260.6 387.8C1252.17 402.746 1243.89 416.34 1235.3 428.245ZM1480.38 363.903C1468.27 368.229 1450.36 368.176 1423.55 361.053C1409.36 357.278 1394.34 352 1378.35 345.763C1386.78 330.811 1395.06 317.213 1403.65 305.305C1419.86 282.898 1433.72 271.433 1445.83 267.111C1471.94 257.791 1502.18 272.123 1511.5 298.23C1520.82 324.337 1506.49 354.583 1480.38 363.903Z" fill="url(#paint6_linear_62_2238)" stroke="url(#paint7_linear_62_2238)" stroke-width="32.8263"/>
<path opacity="0.61" d="M1345.53 440.673L1236.23 396.909C1220.5 419.954 1214.84 428.51 1195.1 446.448L1282.45 526.367C1314.03 497.666 1337.66 457.279 1345.53 440.673Z" fill="url(#paint8_linear_62_2238)"/>
<path opacity="0.74" d="M1292.03 294.223L1401.32 337.978C1414.44 313.692 1422.03 304.447 1441.77 286.508L1351.94 211.841C1322.02 242.272 1300.73 275.869 1292.03 294.223Z" fill="url(#paint9_linear_62_2238)"/>
<path fill-rule="evenodd" clip-rule="evenodd" d="M1029.16 469.812C1000.73 390.169 1043.78 301.21 1123.68 272.686C1165.32 257.82 1211.08 263.269 1255.72 277.568L1256.38 277.778L1353.6 314.127C1359.22 300.949 1369.46 282.674 1383.08 266.294C1397.01 249.548 1418.54 229.87 1446.52 225.508C1477.57 220.667 1501.43 231.332 1516.9 242.969C1524.48 248.673 1530.11 254.631 1533.9 259.209C1535.81 261.519 1537.3 263.539 1538.38 265.089C1538.92 265.866 1539.36 266.531 1539.7 267.062C1539.73 267.11 1539.76 267.157 1539.79 267.203C1539.81 267.231 1539.83 267.259 1539.85 267.287C1540.2 267.804 1540.62 268.45 1541.1 269.22C1542.05 270.755 1543.23 272.804 1544.49 275.32C1546.99 280.316 1549.9 287.377 1551.81 296.082C1555.74 314.002 1555.17 338.144 1539.8 363.476C1519.38 397.106 1486.87 405.674 1463.16 406.419C1451.36 406.789 1440.93 405.331 1433.54 403.842C1429.8 403.087 1426.71 402.299 1424.46 401.667C1423.34 401.35 1422.41 401.071 1421.71 400.85C1421.36 400.74 1421.07 400.645 1420.83 400.567L1420.52 400.463L1420.4 400.422L1420.32 400.395C1420.31 400.392 1420.3 400.388 1429.67 373.237L1420.3 400.388L1419.95 400.269L1237.56 332.072C1198.87 319.771 1167.59 318.009 1143 326.787C1092.42 344.842 1065.69 401.286 1083.26 450.498C1100.83 499.699 1157.33 526.446 1207.83 508.415C1231.63 499.921 1251.87 482.735 1267.58 464.03C1283.34 445.272 1291.73 427.261 1294.54 420.148L1348.7 441.66C1343.5 454.833 1331.09 477.731 1311.57 500.976C1292 524.273 1263.85 549.416 1227.15 562.517C1147.34 591.008 1057.6 549.466 1029.16 469.812ZM1439.13 346.106C1439.32 346.166 1439.62 346.255 1440 346.364C1441.05 346.659 1442.74 347.094 1444.89 347.529C1449.3 348.417 1455.16 349.195 1461.35 349.001C1473.63 348.616 1483.9 344.851 1490.69 333.665C1497.26 322.842 1496.97 314.207 1495.7 308.389C1495 305.225 1493.94 302.676 1493.12 301.03C1492.73 300.26 1492.43 299.742 1492.28 299.511L1491.83 298.884L1491.35 298.082C1491.32 298.035 1491.27 297.969 1491.21 297.887C1490.94 297.501 1490.41 296.769 1489.63 295.821C1488.03 293.882 1485.57 291.291 1482.35 288.868C1476.22 284.252 1467.65 280.352 1455.37 282.268C1448.35 283.361 1438.31 289.726 1427.25 303.025C1418.3 313.785 1411.36 325.899 1407.5 334.28L1439.13 346.106Z" fill="url(#paint10_linear_62_2238)"/>
<path opacity="0.69" d="M1353.55 314.469L1407.61 334.716C1418.05 312.678 1430.09 298.591 1435.56 293.515L1394.23 253.573C1374.39 273.728 1358.23 301.35 1353.55 314.469Z" fill="url(#paint11_linear_62_2238)"/>
<path opacity="0.69" d="M1348.7 441.664L1294.54 420.151C1286.15 440.048 1271.87 459.23 1267.29 464.053L1309.66 503.391C1330.22 480.655 1342.71 454.88 1348.7 441.664Z" fill="url(#paint12_linear_62_2238)"/>
</g>
</g>
</g>
<defs>
<filter id="filter0_d_62_2238" x="-873.326" y="-189.502" width="1637.41" height="1207.13" filterUnits="userSpaceOnUse" color-interpolation-filters="sRGB">
<feFlood flood-opacity="0" result="BackgroundImageFix"/>
<feColorMatrix in="SourceAlpha" type="matrix" values="0 0 0 0 0 0 0 0 0 0 0 0 0 0 0 0 0 0 127 0" result="hardAlpha"/>
<feOffset dy="11.2786"/>
<feGaussianBlur stdDeviation="64.8519"/>
<feComposite in2="hardAlpha" operator="out"/>
<feColorMatrix type="matrix" values="0 0 0 0 0.261806 0 0 0 0 0.272734 0 0 0 0 0.966667 0 0 0 0.64 0"/>
<feBlend mode="normal" in2="BackgroundImageFix" result="effect1_dropShadow_62_2238"/>
<feBlend mode="normal" in="SourceGraphic" in2="effect1_dropShadow_62_2238" result="shape"/>
</filter>
<filter id="filter1_d_62_2238" x="964.504" y="113.153" width="705.812" height="519.087" filterUnits="userSpaceOnUse" color-interpolation-filters="sRGB">
<feFlood flood-opacity="0" result="BackgroundImageFix"/>
<feColorMatrix in="SourceAlpha" type="matrix" values="0 0 0 0 0 0 0 0 0 0 0 0 0 0 0 0 0 0 127 0" result="hardAlpha"/>
<feOffset dy="4.85922"/>
<feGaussianBlur stdDeviation="27.9405"/>
<feComposite in2="hardAlpha" operator="out"/>
<feColorMatrix type="matrix" values="0 0 0 0 0.261806 0 0 0 0 0.272734 0 0 0 0 0.966667 0 0 0 0.64 0"/>
<feBlend mode="normal" in2="BackgroundImageFix" result="effect1_dropShadow_62_2238"/>
<feBlend mode="normal" in="SourceGraphic" in2="effect1_dropShadow_62_2238" result="shape"/>
</filter>
<linearGradient id="paint0_linear_62_2238" x1="772.587" y1="38" x2="772.587" y2="521" gradientUnits="userSpaceOnUse">
<stop offset="0.00356925" stop-color="#45F1C5"/>
<stop offset="0.0587982" stop-color="#7E6AFC"/>
<stop offset="0.942708" stop-color="#1D1F2B" stop-opacity="0"/>
</linearGradient>
<linearGradient id="paint1_linear_62_2238" x1="-606.531" y1="92.8124" x2="637.827" y2="516.319" gradientUnits="userSpaceOnUse">
<stop stop-color="#FCBA33"/>
<stop offset="0.177083" stop-color="#EA5A1E"/>
<stop offset="0.385417" stop-color="#FD52F7"/>
<stop offset="0.598958" stop-color="#3567D0"/>
<stop offset="0.776042" stop-color="#39E4D7"/>
<stop offset="1" stop-color="#50FBB3"/>
</linearGradient>
<linearGradient id="paint2_linear_62_2238" x1="-606.531" y1="92.8124" x2="637.827" y2="516.319" gradientUnits="userSpaceOnUse">
<stop stop-color="#FCBA33"/>
<stop offset="0.177083" stop-color="#EA5A1E"/>
<stop offset="0.385417" stop-color="#FD52F7"/>
<stop offset="0.598958" stop-color="#3567D0"/>
<stop offset="0.776042" stop-color="#39E4D7"/>
<stop offset="1" stop-color="#50FBB3"/>
</linearGradient>
<linearGradient id="paint3_linear_62_2238" x1="71.0049" y1="397.349" x2="259.131" y2="348.483" gradientUnits="userSpaceOnUse">
<stop stop-color="#6115B5"/>
<stop offset="1" stop-color="#6314BB" stop-opacity="0"/>
</linearGradient>
<linearGradient id="paint4_linear_62_2238" x1="-493.584" y1="-379.896" x2="327.718" y2="808.104" gradientUnits="userSpaceOnUse">
<stop stop-color="#FC9233"/>
<stop offset="0.230527" stop-color="#EA5A1E"/>
<stop offset="0.347825" stop-color="#F55693"/>
<stop offset="0.525743" stop-color="#4872F8"/>
<stop offset="0.616351" stop-color="#913DFD"/>
<stop offset="0.971488" stop-color="#00FFC2"/>
</linearGradient>
<linearGradient id="paint5_linear_62_2238" x1="117.674" y1="429.599" x2="251.227" y2="381.165" gradientUnits="userSpaceOnUse">
<stop stop-color="#102A7A"/>
<stop offset="1" stop-color="#6081E9" stop-opacity="0"/>
</linearGradient>
<linearGradient id="paint6_linear_62_2238" x1="1048.4" y1="413.855" x2="1578.93" y2="215.749" gradientUnits="userSpaceOnUse">
<stop stop-color="#FCBA33"/>
<stop offset="0.177083" stop-color="#EA5A1E"/>
<stop offset="0.385417" stop-color="#FD52F7"/>
<stop offset="0.598958" stop-color="#3567D0"/>
<stop offset="0.776042" stop-color="#39E4D7"/>
<stop offset="1" stop-color="#50FBB3"/>
</linearGradient>
<linearGradient id="paint7_linear_62_2238" x1="1048.4" y1="413.855" x2="1578.93" y2="215.749" gradientUnits="userSpaceOnUse">
<stop stop-color="#FCBA33"/>
<stop offset="0.177083" stop-color="#EA5A1E"/>
<stop offset="0.385417" stop-color="#FD52F7"/>
<stop offset="0.598958" stop-color="#3567D0"/>
<stop offset="0.776042" stop-color="#39E4D7"/>
<stop offset="1" stop-color="#50FBB3"/>
</linearGradient>
<linearGradient id="paint8_linear_62_2238" x1="1279.29" y1="407.68" x2="1226.15" y2="472.398" gradientUnits="userSpaceOnUse">
<stop stop-color="#6115B5"/>
<stop offset="1" stop-color="#6314BB" stop-opacity="0"/>
</linearGradient>
<linearGradient id="paint9_linear_62_2238" x1="1357.43" y1="330.652" x2="1406.85" y2="263.048" gradientUnits="userSpaceOnUse">
<stop stop-color="#6115B5"/>
<stop offset="1" stop-color="#6314BB" stop-opacity="0"/>
</linearGradient>
<linearGradient id="paint10_linear_62_2238" x1="957.154" y1="225.389" x2="1555.07" y2="397.642" gradientUnits="userSpaceOnUse">
<stop stop-color="#FC9233"/>
<stop offset="0.230527" stop-color="#EA5A1E"/>
<stop offset="0.347825" stop-color="#F55693"/>
<stop offset="0.525743" stop-color="#4872F8"/>
<stop offset="0.616351" stop-color="#913DFD"/>
<stop offset="0.971488" stop-color="#00FFC2"/>
</linearGradient>
<linearGradient id="paint11_linear_62_2238" x1="1381.79" y1="328.681" x2="1413.13" y2="276.104" gradientUnits="userSpaceOnUse">
<stop stop-color="#102A7A"/>
<stop offset="1" stop-color="#6081E9" stop-opacity="0"/>
</linearGradient>
<linearGradient id="paint12_linear_62_2238" x1="1320.1" y1="428.194" x2="1289.69" y2="481.309" gradientUnits="userSpaceOnUse">
<stop stop-color="#58107A"/>
<stop offset="1" stop-color="#6081E9" stop-opacity="0"/>
</linearGradient>
</defs>
</svg>
