<svg width="1440" height="889" viewBox="0 0 1440 889" fill="none" xmlns="http://www.w3.org/2000/svg">
<mask id="mask0_68_830" style="mask-type:alpha" maskUnits="userSpaceOnUse" x="0" y="0" width="1440" height="889">
<rect width="1440" height="889" fill="#1C1E2A"/>
</mask>
<g mask="url(#mask0_68_830)">
<g filter="url(#filter0_f_68_830)">
<rect width="3012.88" height="2034.22" transform="matrix(0.923786 -0.38291 0.388058 0.921635 -668.202 14.6609)" fill="#1D1F2B"/>
<mask id="mask1_68_830" style="mask-type:alpha" maskUnits="userSpaceOnUse" x="-559" y="-659" width="3025" height="2262">
<rect width="2716.42" height="1324.93" transform="matrix(0.923786 -0.38291 0.388058 0.921635 -558.196 381.361)" fill="#D9D9D9"/>
</mask>
<g mask="url(#mask1_68_830)">
<path d="M1067.75 -24.6407L1067.72 -24.6031L1067.69 -24.5654C1020.05 40.816 977.441 113.803 938.216 185.876C852.516 159.715 763.788 135.225 677.703 119.439C548.652 95.4619 404.182 86.6368 271.936 135.482C15.4471 230.216 -114.829 499.636 -3.19028 735.897C108.458 972.178 417.101 1079.46 673.279 984.841C805.593 935.97 899.91 838.579 971.349 740.939L971.377 740.901L971.404 740.863C1019.05 675.482 1061.65 602.495 1100.88 530.422C1186.58 556.583 1275.31 581.073 1361.39 596.859C1490.44 620.836 1634.91 629.661 1767.16 580.816C2023.65 486.082 2153.93 216.662 2042.29 -19.599C1930.65 -255.86 1622.31 -363.277 1365.82 -268.543C1233.5 -219.673 1139.19 -122.281 1067.75 -24.6407ZM712.769 583.719C654.219 663.911 601.095 708.1 551.217 726.523C442.96 766.507 320.489 717.262 279.89 631.341C239.29 545.421 285.74 433.785 393.997 393.8C443.902 375.367 516.405 372.888 622.387 392.549C622.39 392.55 622.393 392.55 622.395 392.551C622.398 392.551 622.401 392.552 622.403 392.552C679.362 403.137 739.845 418.858 804.177 437.696C774.128 491.384 744.276 540.463 712.769 583.719ZM1645.1 322.498C1595.19 340.931 1522.68 343.41 1416.69 323.746C1359.73 313.161 1299.25 297.44 1234.92 278.602C1264.97 224.914 1294.82 175.834 1326.33 132.579C1384.88 52.3872 1438 8.19756 1487.88 -10.2249C1596.14 -50.2097 1718.61 -0.96367 1759.21 84.9564C1799.81 170.877 1753.36 282.513 1645.1 322.498Z" fill="url(#paint0_linear_68_830)" stroke="url(#paint1_linear_68_830)" stroke-width="107.499"/>
<path opacity="0.61" d="M1135.84 726.589L702.661 580.321C646.316 672.27 626.107 706.37 553.183 779.468L908.604 1069.44C1025.28 952.478 1108.71 792.139 1135.84 726.589Z" fill="url(#paint2_linear_68_830)"/>
<path opacity="0.74" d="M898.141 173.529L1331.31 319.761C1377.22 223.57 1404.79 186.42 1477.71 113.322L1113.74 -155.918C1003.88 -32.6369 928.129 101.079 898.141 173.529Z" fill="url(#paint3_linear_68_830)"/>
<path fill-rule="evenodd" clip-rule="evenodd" d="M-86.0575 764.376C-212.754 496.25 -63.9313 183.181 240.33 70.8018C398.896 12.2356 577.593 22.628 753.806 63.5922L756.389 64.1927L1141.18 171.278C1160.31 125.037 1196.28 60.4721 1245.79 1.79081C1296.4 -58.1978 1375.94 -129.63 1483.64 -149.676C1603.16 -171.922 1697.97 -139.657 1760.37 -102.532C1790.96 -84.3348 1814.05 -64.9131 1829.69 -49.8897C1837.58 -42.3105 1843.78 -35.6508 1848.28 -30.5281C1850.53 -27.9603 1852.38 -25.7591 1853.82 -23.9985C1853.95 -23.8386 1854.08 -23.6823 1854.2 -23.5295C1854.28 -23.4384 1854.36 -23.3461 1854.44 -23.2525C1855.9 -21.541 1857.67 -19.4 1859.68 -16.8457C1863.69 -11.7496 1868.7 -4.93387 1874.1 3.4696C1884.83 20.1581 1897.58 43.8592 1906.78 73.3829C1925.71 134.161 1928.47 217.104 1873.99 306.818C1801.65 425.923 1677.22 461.225 1585.35 468.082C1539.64 471.494 1498.85 468.383 1469.88 464.615C1455.2 462.706 1443.05 460.56 1434.2 458.801C1429.76 457.918 1426.11 457.126 1423.35 456.497C1421.97 456.183 1420.81 455.909 1419.87 455.684L1418.65 455.385L1418.17 455.265L1417.86 455.189C1417.82 455.177 1417.78 455.166 1448.58 360.3L1417.77 455.166L1416.41 454.82L694.502 253.914C541.82 218.725 420.033 218.357 326.396 252.942C133.806 324.075 41.6703 522.605 119.958 688.284C198.227 853.924 423.003 935.449 615.331 864.413C705.936 830.948 780.974 768.3 838.109 701.264C895.405 634.039 924.284 570.713 933.72 545.797L1148.34 609.783C1130.86 655.929 1087.42 736.751 1016.42 820.056C945.261 903.551 841.144 994.938 701.397 1046.55C397.488 1158.8 40.6573 1032.54 -86.0575 764.376ZM1479.7 265.489C1480.47 265.659 1481.64 265.908 1483.16 266.211C1487.3 267.034 1493.92 268.222 1502.38 269.322C1519.67 271.571 1542.57 273.177 1566.57 271.386C1614.12 267.837 1653.22 253.054 1677.28 213.44C1700.56 175.108 1697.67 145.53 1691.53 125.797C1688.18 115.066 1683.53 106.515 1680 101.015C1678.35 98.4439 1677.05 96.7205 1676.45 95.9539L1674.55 93.8832L1672.52 91.2196C1672.39 91.064 1672.2 90.8474 1671.96 90.5744C1670.84 89.298 1668.63 86.8854 1665.39 83.7718C1658.77 77.4099 1648.71 68.9648 1635.72 61.2356C1610.97 46.5082 1576.93 34.6824 1529.64 43.4849C1502.64 48.5106 1464.95 72.1743 1424.76 119.815C1392.23 158.361 1367.78 201.187 1354.51 230.648L1479.7 265.489Z" fill="url(#paint4_linear_68_830)"/>
<path opacity="0.69" d="M1141.06 238.961L1355.02 305.921C1391.03 218.927 1434.88 162.227 1455.08 141.567L1286.46 -3.82547C1213.58 77.8312 1156.54 187.488 1141.06 238.961Z" fill="url(#paint5_linear_68_830)"/>
<path opacity="0.69" d="M1148.35 729.761L933.727 657.948C905.247 736.278 853.764 813.055 836.995 832.559L1009.49 975.415C1084.64 883.673 1127.84 781.874 1148.35 729.761Z" fill="url(#paint6_linear_68_830)"/>
</g>
</g>
</g>
<rect opacity="0.45" y="389.93" width="1440" height="499.07" fill="url(#paint7_linear_68_830)"/>
<defs>
<filter id="filter0_f_68_830" x="-863.202" y="-1334" width="3962.65" height="3418.47" filterUnits="userSpaceOnUse" color-interpolation-filters="sRGB">
<feFlood flood-opacity="0" result="BackgroundImageFix"/>
<feBlend mode="normal" in="SourceGraphic" in2="BackgroundImageFix" result="shape"/>
<feGaussianBlur stdDeviation="97.5" result="effect1_foregroundBlur_68_830"/>
</filter>
<linearGradient id="paint0_linear_68_830" x1="-22.8797" y1="568.875" x2="1909.69" y2="-381.745" gradientUnits="userSpaceOnUse">
<stop stop-color="#FCBA33"/>
<stop offset="0.177083" stop-color="#EA5A1E"/>
<stop offset="0.385417" stop-color="#FD52F7"/>
<stop offset="0.598958" stop-color="#3567D0"/>
<stop offset="0.776042" stop-color="#39E4D7"/>
<stop offset="1" stop-color="#50FBB3"/>
</linearGradient>
<linearGradient id="paint1_linear_68_830" x1="-22.8797" y1="568.875" x2="1909.69" y2="-381.745" gradientUnits="userSpaceOnUse">
<stop stop-color="#FCBA33"/>
<stop offset="0.177083" stop-color="#EA5A1E"/>
<stop offset="0.385417" stop-color="#FD52F7"/>
<stop offset="0.598958" stop-color="#3567D0"/>
<stop offset="0.776042" stop-color="#39E4D7"/>
<stop offset="1" stop-color="#50FBB3"/>
</linearGradient>
<linearGradient id="paint2_linear_68_830" x1="871.984" y1="613.028" x2="680.973" y2="874.505" gradientUnits="userSpaceOnUse">
<stop stop-color="#6115B5"/>
<stop offset="1" stop-color="#6314BB" stop-opacity="0"/>
</linearGradient>
<linearGradient id="paint3_linear_68_830" x1="1159.46" y1="300.489" x2="1335.44" y2="28.8258" gradientUnits="userSpaceOnUse">
<stop stop-color="#6115B5"/>
<stop offset="1" stop-color="#6314BB" stop-opacity="0"/>
</linearGradient>
<linearGradient id="paint4_linear_68_830" x1="-415.702" y1="-61.2682" x2="1907.25" y2="547.42" gradientUnits="userSpaceOnUse">
<stop stop-color="#FC9233"/>
<stop offset="0.230527" stop-color="#EA5A1E"/>
<stop offset="0.347825" stop-color="#F55693"/>
<stop offset="0.525743" stop-color="#4872F8"/>
<stop offset="0.616351" stop-color="#913DFD"/>
<stop offset="0.971488" stop-color="#00FFC2"/>
</linearGradient>
<linearGradient id="paint5_linear_68_830" x1="1253.6" y1="287.937" x2="1363.07" y2="78.3809" gradientUnits="userSpaceOnUse">
<stop stop-color="#102A7A"/>
<stop offset="1" stop-color="#6081E9" stop-opacity="0"/>
</linearGradient>
<linearGradient id="paint6_linear_68_830" x1="1034.59" y1="683.714" x2="928.781" y2="895.114" gradientUnits="userSpaceOnUse">
<stop stop-color="#58107A"/>
<stop offset="1" stop-color="#6081E9" stop-opacity="0"/>
</linearGradient>
<linearGradient id="paint7_linear_68_830" x1="720" y1="389.93" x2="720" y2="889" gradientUnits="userSpaceOnUse">
<stop stop-opacity="0"/>
<stop offset="1" stop-color="#1D202B"/>
</linearGradient>
</defs>
</svg>
