<svg width="94" height="94" viewBox="0 0 94 94" fill="none" xmlns="http://www.w3.org/2000/svg">
<rect width="93.8592" height="93.8592" rx="29.331" fill="url(#paint0_linear_62_1884)"/>
<path d="M60.9773 44.8961C60.6332 38.7953 56.1123 33.7112 50.074 32.6788C49.9802 31.4743 48.979 30.5044 47.7432 30.5044H46.1789C44.9431 30.5044 43.9575 31.4586 43.848 32.6632C37.7785 33.6643 33.2263 38.764 32.8822 44.8961C31.7715 45.0838 30.9268 46.0381 30.9268 47.1957V48.76C30.9268 50.0584 31.9749 51.1065 33.2732 51.1065H34.8376C36.1359 51.1065 37.184 50.0584 37.184 48.76V47.1957C37.184 46.0381 36.3393 45.0838 35.2286 44.8961C35.5571 40.0155 39.1394 35.9639 43.9262 35.0253C44.1922 36.0264 45.0995 36.7617 46.1789 36.7617H47.7432C48.8226 36.7617 49.7142 36.0264 49.9958 35.0409C54.7513 35.9952 58.3023 40.0467 58.6309 44.8961C57.5202 45.0838 56.6755 46.0381 56.6755 47.1957V48.76C56.6755 50.0584 57.7235 51.1065 59.0219 51.1065H60.5862C61.8846 51.1065 62.9327 50.0584 62.9327 48.76V47.1957C62.9327 46.0381 62.088 45.0682 60.9773 44.8961Z" fill="white"/>
<path d="M52.8273 54.0474L50.2618 56.3157H43.6135L41.048 54.0474C39.5619 52.8272 39.5619 51.8887 40.6882 50.4495L45.2091 44.7241C45.522 44.333 45.8817 44.0671 46.2885 43.9263C46.7108 43.7855 47.1645 43.7855 47.6025 43.9263C47.9936 44.0671 48.3534 44.333 48.6819 44.7241L53.1871 50.4338C54.3291 51.873 54.2665 52.7647 52.8273 54.0474Z" fill="url(#paint1_linear_62_1884)"/>
<path d="M48.9946 62.573H44.943C43.5038 62.573 42.4244 61.3997 42.706 60.1483L43.1909 57.9739C43.2848 57.5359 43.6759 57.2386 44.1139 57.2386H49.8237C50.2617 57.2386 50.6371 57.5359 50.7466 57.9739L51.2315 60.1483C51.5288 61.478 50.5276 62.573 48.9946 62.573Z" fill="white"/>
<defs>
<linearGradient id="paint0_linear_62_1884" x1="-59.6323" y1="-75.2645" x2="204.974" y2="-37.6392" gradientUnits="userSpaceOnUse">
<stop offset="0.281058" stop-color="#EDB748"/>
<stop offset="0.342251" stop-color="#F5956C"/>
<stop offset="0.407375" stop-color="#F360C1"/>
<stop offset="0.507494" stop-color="#A95FFC"/>
<stop offset="0.5772" stop-color="#488DF5"/>
<stop offset="0.658954" stop-color="#0ED2C3"/>
<stop offset="0.89289" stop-color="#0BC878"/>
</linearGradient>
<linearGradient id="paint1_linear_62_1884" x1="46.9327" y1="40.6885" x2="46.9327" y2="61.7078" gradientUnits="userSpaceOnUse">
<stop offset="0.116505" stop-color="white"/>
<stop offset="0.766713" stop-color="white" stop-opacity="0"/>
</linearGradient>
</defs>
</svg>
