<svg width="427" height="427" viewBox="0 0 427 427" fill="none" xmlns="http://www.w3.org/2000/svg">
<mask id="mask0_62_1790" style="mask-type:alpha" maskUnits="userSpaceOnUse" x="0" y="0" width="427" height="427">
<rect width="427" height="427" fill="#D9D9D9"/>
</mask>
<g mask="url(#mask0_62_1790)">
<rect x="116" y="187" width="55" height="51" rx="25.5" fill="url(#paint0_linear_62_1790)"/>
<rect x="229" y="170" width="110" height="51" rx="25.5" fill="url(#paint1_linear_62_1790)"/>
<rect x="156" y="167" width="15" height="14" rx="7" fill="url(#paint2_linear_62_1790)"/>
<rect x="339" y="221" width="15" height="15" rx="7.5" fill="url(#paint3_linear_62_1790)"/>
<path d="M145.16 206V183.65H149.24V202.4H158.81V206H145.16ZM168.859 206.36C167.179 206.36 165.709 205.98 164.449 205.22C163.189 204.46 162.209 203.43 161.509 202.13C160.809 200.83 160.459 199.39 160.459 197.81C160.459 196.17 160.809 194.72 161.509 193.46C162.229 192.18 163.199 191.17 164.419 190.43C165.659 189.69 167.039 189.32 168.559 189.32C169.839 189.32 170.959 189.53 171.919 189.95C172.899 190.37 173.729 190.95 174.409 191.69C175.089 192.43 175.609 193.28 175.969 194.24C176.329 195.18 176.509 196.2 176.509 197.3C176.509 197.58 176.489 197.87 176.449 198.17C176.429 198.47 176.379 198.73 176.299 198.95H163.699V195.95H174.079L172.219 197.36C172.399 196.44 172.349 195.62 172.069 194.9C171.809 194.18 171.369 193.61 170.749 193.19C170.149 192.77 169.419 192.56 168.559 192.56C167.739 192.56 167.009 192.77 166.369 193.19C165.729 193.59 165.239 194.19 164.899 194.99C164.579 195.77 164.459 196.72 164.539 197.84C164.459 198.84 164.589 199.73 164.929 200.51C165.289 201.27 165.809 201.86 166.489 202.28C167.189 202.7 167.989 202.91 168.889 202.91C169.789 202.91 170.549 202.72 171.169 202.34C171.809 201.96 172.309 201.45 172.669 200.81L175.849 202.37C175.529 203.15 175.029 203.84 174.349 204.44C173.669 205.04 172.859 205.51 171.919 205.85C170.999 206.19 169.979 206.36 168.859 206.36ZM184.38 206.36C183.24 206.36 182.25 206.17 181.41 205.79C180.57 205.41 179.92 204.87 179.46 204.17C179 203.45 178.77 202.62 178.77 201.68C178.77 200.78 178.97 199.98 179.37 199.28C179.77 198.56 180.39 197.96 181.23 197.48C182.07 197 183.13 196.66 184.41 196.46L189.75 195.59V198.59L185.16 199.37C184.38 199.51 183.8 199.76 183.42 200.12C183.04 200.48 182.85 200.95 182.85 201.53C182.85 202.09 183.06 202.54 183.48 202.88C183.92 203.2 184.46 203.36 185.1 203.36C185.92 203.36 186.64 203.19 187.26 202.85C187.9 202.49 188.39 202 188.73 201.38C189.09 200.76 189.27 200.08 189.27 199.34V195.14C189.27 194.44 188.99 193.86 188.43 193.4C187.89 192.92 187.17 192.68 186.27 192.68C185.43 192.68 184.68 192.91 184.02 193.37C183.38 193.81 182.91 194.4 182.61 195.14L179.4 193.58C179.72 192.72 180.22 191.98 180.9 191.36C181.6 190.72 182.42 190.22 183.36 189.86C184.3 189.5 185.32 189.32 186.42 189.32C187.76 189.32 188.94 189.57 189.96 190.07C190.98 190.55 191.77 191.23 192.33 192.11C192.91 192.97 193.2 193.98 193.2 195.14V206H189.48V203.21L190.32 203.15C189.9 203.85 189.4 204.44 188.82 204.92C188.24 205.38 187.58 205.74 186.84 206C186.1 206.24 185.28 206.36 184.38 206.36ZM196.832 206V189.68H200.522V193.31L200.222 192.77C200.602 191.55 201.192 190.7 201.992 190.22C202.812 189.74 203.792 189.5 204.932 189.5H205.892V192.98H204.482C203.362 192.98 202.462 193.33 201.782 194.03C201.102 194.71 200.762 195.67 200.762 196.91V206H196.832ZM208.053 206V189.68H211.743V192.89L211.443 192.32C211.823 191.34 212.443 190.6 213.303 190.1C214.183 189.58 215.203 189.32 216.363 189.32C217.563 189.32 218.623 189.58 219.543 190.1C220.483 190.62 221.213 191.35 221.733 192.29C222.253 193.21 222.513 194.28 222.513 195.5V206H218.583V196.43C218.583 195.71 218.443 195.09 218.163 194.57C217.883 194.05 217.493 193.65 216.993 193.37C216.513 193.07 215.943 192.92 215.283 192.92C214.643 192.92 214.073 193.07 213.573 193.37C213.073 193.65 212.683 194.05 212.403 194.57C212.123 195.09 211.983 195.71 211.983 196.43V206H208.053ZM247.494 206V183.65H251.394L259.764 195.02H257.904L266.094 183.65H269.994V206H265.884V188.3L267.474 188.69L258.984 200H258.504L250.224 188.69L251.574 188.3V206H247.494ZM281.921 206.36C280.321 206.36 278.861 205.99 277.541 205.25C276.241 204.51 275.201 203.5 274.421 202.22C273.661 200.94 273.281 199.48 273.281 197.84C273.281 196.2 273.661 194.74 274.421 193.46C275.201 192.18 276.241 191.17 277.541 190.43C278.841 189.69 280.301 189.32 281.921 189.32C283.521 189.32 284.971 189.69 286.271 190.43C287.571 191.17 288.601 192.18 289.361 193.46C290.141 194.72 290.531 196.18 290.531 197.84C290.531 199.48 290.141 200.94 289.361 202.22C288.581 203.5 287.541 204.51 286.241 205.25C284.941 205.99 283.501 206.36 281.921 206.36ZM281.921 202.76C282.801 202.76 283.571 202.55 284.231 202.13C284.911 201.71 285.441 201.13 285.821 200.39C286.221 199.63 286.421 198.78 286.421 197.84C286.421 196.88 286.221 196.04 285.821 195.32C285.441 194.58 284.911 194 284.231 193.58C283.571 193.14 282.801 192.92 281.921 192.92C281.021 192.92 280.231 193.14 279.551 193.58C278.871 194 278.331 194.58 277.931 195.32C277.551 196.04 277.361 196.88 277.361 197.84C277.361 198.78 277.551 199.63 277.931 200.39C278.331 201.13 278.871 201.71 279.551 202.13C280.231 202.55 281.021 202.76 281.921 202.76ZM293.512 206V189.68H297.202V193.31L296.902 192.77C297.282 191.55 297.872 190.7 298.672 190.22C299.492 189.74 300.472 189.5 301.612 189.5H302.572V192.98H301.162C300.042 192.98 299.142 193.33 298.462 194.03C297.782 194.71 297.442 195.67 297.442 196.91V206H293.512ZM312.472 206.36C310.792 206.36 309.322 205.98 308.062 205.22C306.802 204.46 305.822 203.43 305.122 202.13C304.422 200.83 304.072 199.39 304.072 197.81C304.072 196.17 304.422 194.72 305.122 193.46C305.842 192.18 306.812 191.17 308.032 190.43C309.272 189.69 310.652 189.32 312.172 189.32C313.452 189.32 314.572 189.53 315.532 189.95C316.512 190.37 317.342 190.95 318.022 191.69C318.702 192.43 319.222 193.28 319.582 194.24C319.942 195.18 320.122 196.2 320.122 197.3C320.122 197.58 320.102 197.87 320.062 198.17C320.042 198.47 319.992 198.73 319.912 198.95H307.312V195.95H317.692L315.832 197.36C316.012 196.44 315.962 195.62 315.682 194.9C315.422 194.18 314.982 193.61 314.362 193.19C313.762 192.77 313.032 192.56 312.172 192.56C311.352 192.56 310.622 192.77 309.982 193.19C309.342 193.59 308.852 194.19 308.512 194.99C308.192 195.77 308.072 196.72 308.152 197.84C308.072 198.84 308.202 199.73 308.542 200.51C308.902 201.27 309.422 201.86 310.102 202.28C310.802 202.7 311.602 202.91 312.502 202.91C313.402 202.91 314.162 202.72 314.782 202.34C315.422 201.96 315.922 201.45 316.282 200.81L319.462 202.37C319.142 203.15 318.642 203.84 317.962 204.44C317.282 205.04 316.472 205.51 315.532 205.85C314.612 206.19 313.592 206.36 312.472 206.36Z" fill="white"/>
<path d="M224 239L229 244L234 239" stroke="white" stroke-width="2" stroke-linecap="round" stroke-linejoin="round"/>
<path d="M224 232L229 237L234 232" stroke="white" stroke-width="2" stroke-linecap="round" stroke-linejoin="round"/>
</g>
<defs>
<linearGradient id="paint0_linear_62_1790" x1="81.0564" y1="146.104" x2="235.612" y2="169.804" gradientUnits="userSpaceOnUse">
<stop offset="0.281058" stop-color="#EDB748"/>
<stop offset="0.342251" stop-color="#F5956C"/>
<stop offset="0.407375" stop-color="#F360C1"/>
<stop offset="0.507494" stop-color="#A95FFC"/>
<stop offset="0.5772" stop-color="#488DF5"/>
<stop offset="0.658954" stop-color="#0ED2C3"/>
<stop offset="0.89289" stop-color="#0BC878"/>
</linearGradient>
<linearGradient id="paint1_linear_62_1790" x1="159.113" y1="129.104" x2="448.293" y2="217.793" gradientUnits="userSpaceOnUse">
<stop offset="0.281058" stop-color="#EDB748"/>
<stop offset="0.342251" stop-color="#F5956C"/>
<stop offset="0.407375" stop-color="#F360C1"/>
<stop offset="0.507494" stop-color="#A95FFC"/>
<stop offset="0.5772" stop-color="#488DF5"/>
<stop offset="0.658954" stop-color="#0ED2C3"/>
<stop offset="0.89289" stop-color="#0BC878"/>
</linearGradient>
<linearGradient id="paint2_linear_62_1790" x1="146.47" y1="155.774" x2="188.634" y2="162.197" gradientUnits="userSpaceOnUse">
<stop offset="0.281058" stop-color="#EDB748"/>
<stop offset="0.342251" stop-color="#F5956C"/>
<stop offset="0.407375" stop-color="#F360C1"/>
<stop offset="0.507494" stop-color="#A95FFC"/>
<stop offset="0.5772" stop-color="#488DF5"/>
<stop offset="0.658954" stop-color="#0ED2C3"/>
<stop offset="0.89289" stop-color="#0BC878"/>
</linearGradient>
<linearGradient id="paint3_linear_62_1790" x1="329.47" y1="208.972" x2="371.758" y2="214.985" gradientUnits="userSpaceOnUse">
<stop offset="0.281058" stop-color="#EDB748"/>
<stop offset="0.342251" stop-color="#F5956C"/>
<stop offset="0.407375" stop-color="#F360C1"/>
<stop offset="0.507494" stop-color="#A95FFC"/>
<stop offset="0.5772" stop-color="#488DF5"/>
<stop offset="0.658954" stop-color="#0ED2C3"/>
<stop offset="0.89289" stop-color="#0BC878"/>
</linearGradient>
</defs>
</svg>
