<svg width="1440" height="987" viewBox="0 0 1440 987" fill="none" xmlns="http://www.w3.org/2000/svg">
<mask id="mask0_81_960" style="mask-type:alpha" maskUnits="userSpaceOnUse" x="0" y="0" width="1440" height="987">
<rect width="1440" height="987" fill="#D9D9D9"/>
</mask>
<g mask="url(#mask0_81_960)">
<rect y="-13" width="1458" height="459" fill="url(#paint0_linear_81_960)"/>
<g opacity="0.3" filter="url(#filter0_d_81_960)">
<mask id="mask1_81_960" style="mask-type:alpha" maskUnits="userSpaceOnUse" x="-984" y="-308" width="1798" height="1296">
<rect x="-716.46" y="-308" width="1624.12" height="796.542" transform="rotate(19.6259 -716.46 -308)" fill="#D9D9D9"/>
</mask>
<g mask="url(#mask1_81_960)">
<path d="M145.533 181.004L145.498 181.013L145.464 181.022C96.3573 194.098 46.1816 212.564 -2.19066 231.983C-27.3508 186.202 -54.5544 140.133 -84.4011 99.0257C-130.675 34.9445 -191.54 -29.0268 -274.445 -58.59C-436.198 -116.27 -617.296 -30.2072 -674.902 131.339C-732.514 292.901 -646.535 474.184 -484.973 531.796C-402.019 561.377 -314.305 550.133 -238.103 529.995L-238.069 529.986L-238.034 529.977C-188.928 516.901 -138.752 498.435 -90.3797 479.016C-65.2209 524.794 -38.0189 570.861 -8.17406 611.966C38.1001 676.05 98.967 740.025 181.875 769.589C343.628 827.269 524.725 741.206 582.332 579.66C639.938 418.113 554.155 236.883 392.402 179.203C309.448 149.622 221.735 160.866 145.533 181.004ZM-287.848 342.282C-349.896 358.741 -391.664 358.97 -419.77 348.947C-480.374 327.336 -513.664 257.145 -492.053 196.542C-470.442 135.938 -400.251 102.648 -339.648 124.259C-311.516 134.29 -279.427 160.687 -241.713 212.885C-221.763 240.515 -202.524 272.068 -182.961 306.762C-220.059 321.248 -254.919 333.508 -287.848 342.282ZM247.077 586.74C218.946 576.709 186.857 550.312 149.142 498.114C129.192 470.483 109.954 438.931 90.3905 404.237C127.489 389.75 162.348 377.49 195.278 368.717C257.326 352.258 299.093 352.029 327.2 362.052C387.803 383.662 421.094 453.854 399.483 514.457C377.872 575.061 307.681 608.351 247.077 586.74Z" fill="url(#paint1_linear_81_960)" stroke="url(#paint2_linear_81_960)" stroke-width="76.1921"/>
<path opacity="0.74" d="M11.0082 184.801L143.107 423.999C202.353 399.629 229.578 394.171 291.4 390.937L239.693 124.788C141.225 135.515 53.6019 164.6 11.0082 184.801Z" fill="url(#paint3_linear_81_960)"/>
<path fill-rule="evenodd" clip-rule="evenodd" d="M-719.313 114.093C-653.387 -70.7859 -445.329 -167.385 -259.847 -101.243C-163.183 -66.773 -88.9748 10.2401 -29.7616 101.529L-28.8937 102.867L92.3896 311.02C121.864 295.609 167.102 277.807 215.647 268.388C265.274 258.76 332.88 255.04 389.565 288.31C452.47 325.231 479.683 379.459 490.369 423.087C495.607 444.472 496.979 463.457 497.056 477.247C497.095 484.204 496.805 490.022 496.465 494.391C496.294 496.581 496.109 498.423 495.944 499.88C495.929 500.012 495.914 500.142 495.899 500.268C495.892 500.345 495.885 500.422 495.878 500.501C495.745 501.944 495.554 503.725 495.281 505.809C494.734 509.966 493.85 515.386 492.416 521.756C489.569 534.406 484.427 551.372 475.068 569.819C455.802 607.794 419.313 650.341 354.463 673.265C268.367 703.698 197.357 671.326 153.659 637.826C131.915 621.157 115.313 603.21 104.23 589.684C98.615 582.832 94.223 576.876 91.1122 572.438C89.5523 570.213 88.3018 568.352 87.3684 566.928C86.9013 566.216 86.5125 565.612 86.203 565.125L85.7977 564.483L85.6396 564.23L85.5405 564.07C85.5257 564.046 85.5112 564.022 142.244 529.008L85.5111 564.022L85.0668 563.302L-142.477 172.78C-193.921 93.8343 -247.549 44.7026 -304.631 24.3473C-422.037 -17.5187 -552.986 44.638 -593.723 158.878C-634.45 273.09 -572.226 404.162 -454.979 445.971C-399.745 465.668 -338.12 464.527 -282.409 453.999C-226.54 443.44 -184.997 423.409 -169.501 414.753L-103.79 532.98C-132.488 549.011 -188.416 571.932 -257.649 585.016C-327.038 598.129 -414.572 601.94 -499.764 571.562C-685.032 505.496 -785.249 299 -719.313 114.093ZM199.091 494.146C199.355 494.542 199.756 495.135 200.293 495.9C201.746 497.973 204.131 501.229 207.365 505.176C213.98 513.249 223.366 523.256 234.781 532.007C257.399 549.346 281.389 557.674 310.024 547.552C337.733 537.757 349.905 521.82 356.16 509.491C359.562 502.786 361.396 496.646 362.334 492.477C362.773 490.528 362.985 489.147 363.069 488.523L363.171 486.725L363.485 484.578C363.497 484.447 363.513 484.264 363.532 484.031C363.616 482.943 363.738 480.85 363.722 477.992C363.689 472.152 363.086 463.891 360.861 454.808C356.622 437.501 346.962 417.911 322.072 403.302C307.861 394.962 280.456 391.637 241.044 399.284C209.157 405.47 178.886 417.038 159.631 426.423L199.091 494.146Z" fill="url(#paint4_linear_81_960)"/>
<path opacity="0.69" d="M91.8023 311.563L159.189 427.368C210.333 403.112 252.67 395.494 269.961 394.414L254.373 261.914C189.104 268.975 119.491 294.87 91.8023 311.563Z" fill="url(#paint5_linear_81_960)"/>
</g>
</g>
<g opacity="0.53" filter="url(#filter1_d_81_960)">
<mask id="mask2_81_960" style="mask-type:alpha" maskUnits="userSpaceOnUse" x="919" y="42" width="775" height="559">
<rect x="919" y="277.252" width="699.727" height="343.178" transform="rotate(-19.6458 919 277.252)" fill="#D9D9D9"/>
</mask>
<g mask="url(#mask2_81_960)">
<path d="M1339.86 205.27L1339.85 205.282L1339.84 205.294C1327.03 223.048 1315.33 242.891 1304.5 262.56C1283.62 254.152 1261.98 246.205 1240.81 240.634C1207.9 231.881 1170.16 227.144 1134.44 239.893C1064.76 264.768 1027.83 342.861 1052.68 412.452C1077.52 482.05 1155.64 519.066 1225.24 494.22C1260.97 481.464 1287.16 453.792 1307.08 426.294L1307.09 426.281L1307.1 426.269C1319.91 408.516 1331.61 388.673 1342.45 369.004C1363.33 377.412 1384.97 385.359 1406.14 390.93C1439.04 399.683 1476.79 404.42 1512.5 391.671C1582.18 366.796 1619.11 288.702 1594.27 219.111C1569.43 149.52 1491.39 112.468 1421.71 137.343C1385.98 150.1 1359.79 177.771 1339.86 205.27ZM1239.3 377.245C1223.1 399.661 1209.23 411.13 1197.12 415.453C1171.01 424.772 1140.76 410.44 1131.44 384.333C1122.12 358.226 1136.46 327.981 1162.56 318.661C1174.68 314.335 1192.58 314.388 1219.4 321.512C1233.59 325.287 1248.61 330.564 1264.6 336.8C1256.17 351.746 1247.89 365.34 1239.3 377.245ZM1484.38 312.903C1472.27 317.229 1454.36 317.176 1427.55 310.053C1413.36 306.278 1398.34 301 1382.35 294.763C1390.78 279.811 1399.06 266.213 1407.65 254.305C1423.86 231.898 1437.72 220.433 1449.83 216.111C1475.94 206.791 1506.18 221.123 1515.5 247.23C1524.82 273.337 1510.49 303.583 1484.38 312.903Z" fill="url(#paint6_linear_81_960)" stroke="url(#paint7_linear_81_960)" stroke-width="32.8263"/>
<path opacity="0.61" d="M1349.53 389.673L1240.23 345.909C1224.5 368.954 1218.84 377.51 1199.1 395.448L1286.45 475.367C1318.03 446.666 1341.66 406.279 1349.53 389.673Z" fill="url(#paint8_linear_81_960)"/>
<path opacity="0.74" d="M1296.03 243.223L1405.32 286.978C1418.44 262.692 1426.03 253.447 1445.77 235.508L1355.94 160.841C1326.02 191.272 1304.73 224.869 1296.03 243.223Z" fill="url(#paint9_linear_81_960)"/>
<path fill-rule="evenodd" clip-rule="evenodd" d="M1033.16 418.812C1004.73 339.169 1047.78 250.21 1127.68 221.686C1169.32 206.82 1215.08 212.269 1259.72 226.568L1260.38 226.778L1357.6 263.127C1363.22 249.949 1373.46 231.674 1387.08 215.294C1401.01 198.548 1422.54 178.87 1450.52 174.508C1481.57 169.667 1505.43 180.332 1520.9 191.969C1528.48 197.673 1534.11 203.631 1537.9 208.209C1539.81 210.519 1541.3 212.539 1542.38 214.089C1542.92 214.866 1543.36 215.531 1543.7 216.062C1543.73 216.11 1543.76 216.157 1543.79 216.203C1543.81 216.231 1543.83 216.259 1543.85 216.287C1544.2 216.804 1544.62 217.45 1545.1 218.22C1546.05 219.755 1547.23 221.804 1548.49 224.32C1550.99 229.316 1553.9 236.377 1555.81 245.082C1559.74 263.002 1559.17 287.144 1543.8 312.476C1523.38 346.106 1490.87 354.674 1467.16 355.419C1455.36 355.789 1444.93 354.331 1437.54 352.842C1433.8 352.087 1430.71 351.299 1428.46 350.667C1427.34 350.35 1426.41 350.071 1425.71 349.85C1425.36 349.74 1425.07 349.645 1424.83 349.567L1424.52 349.463L1424.4 349.422L1424.32 349.395C1424.31 349.392 1424.3 349.388 1433.67 322.237L1424.3 349.388L1423.95 349.269L1241.56 281.072C1202.87 268.771 1171.59 267.009 1147 275.787C1096.42 293.842 1069.69 350.286 1087.26 399.498C1104.83 448.699 1161.33 475.446 1211.83 457.415C1235.63 448.921 1255.87 431.735 1271.58 413.03C1287.34 394.272 1295.73 376.261 1298.54 369.148L1352.7 390.66C1347.5 403.833 1335.09 426.731 1315.57 449.976C1296 473.273 1267.85 498.416 1231.15 511.517C1151.34 540.008 1061.6 498.466 1033.16 418.812ZM1443.13 295.106C1443.32 295.166 1443.62 295.255 1444 295.364C1445.05 295.659 1446.74 296.094 1448.89 296.529C1453.3 297.417 1459.16 298.195 1465.35 298.001C1477.63 297.616 1487.9 293.851 1494.69 282.665C1501.26 271.842 1500.97 263.207 1499.7 257.389C1499 254.225 1497.94 251.676 1497.12 250.03C1496.73 249.26 1496.43 248.742 1496.28 248.511L1495.83 247.884L1495.35 247.082C1495.32 247.035 1495.27 246.969 1495.21 246.887C1494.94 246.501 1494.41 245.769 1493.63 244.821C1492.03 242.882 1489.57 240.291 1486.35 237.868C1480.22 233.252 1471.65 229.352 1459.37 231.268C1452.35 232.361 1442.31 238.726 1431.25 252.025C1422.3 262.785 1415.36 274.899 1411.5 283.28L1443.13 295.106Z" fill="url(#paint10_linear_81_960)"/>
<path opacity="0.69" d="M1357.55 263.469L1411.61 283.716C1422.05 261.678 1434.09 247.591 1439.56 242.515L1398.23 202.573C1378.39 222.728 1362.23 250.35 1357.55 263.469Z" fill="url(#paint11_linear_81_960)"/>
<path opacity="0.69" d="M1352.7 390.664L1298.54 369.151C1290.15 389.048 1275.87 408.23 1271.29 413.053L1313.66 452.391C1334.22 429.655 1346.71 403.88 1352.7 390.664Z" fill="url(#paint12_linear_81_960)"/>
</g>
</g>
</g>
<defs>
<filter id="filter0_d_81_960" x="-869.326" y="-240.502" width="1637.41" height="1207.13" filterUnits="userSpaceOnUse" color-interpolation-filters="sRGB">
<feFlood flood-opacity="0" result="BackgroundImageFix"/>
<feColorMatrix in="SourceAlpha" type="matrix" values="0 0 0 0 0 0 0 0 0 0 0 0 0 0 0 0 0 0 127 0" result="hardAlpha"/>
<feOffset dy="11.2786"/>
<feGaussianBlur stdDeviation="64.8519"/>
<feComposite in2="hardAlpha" operator="out"/>
<feColorMatrix type="matrix" values="0 0 0 0 0.261806 0 0 0 0 0.272734 0 0 0 0 0.966667 0 0 0 0.64 0"/>
<feBlend mode="normal" in2="BackgroundImageFix" result="effect1_dropShadow_81_960"/>
<feBlend mode="normal" in="SourceGraphic" in2="effect1_dropShadow_81_960" result="shape"/>
</filter>
<filter id="filter1_d_81_960" x="968.504" y="62.1528" width="705.812" height="519.087" filterUnits="userSpaceOnUse" color-interpolation-filters="sRGB">
<feFlood flood-opacity="0" result="BackgroundImageFix"/>
<feColorMatrix in="SourceAlpha" type="matrix" values="0 0 0 0 0 0 0 0 0 0 0 0 0 0 0 0 0 0 127 0" result="hardAlpha"/>
<feOffset dy="4.85922"/>
<feGaussianBlur stdDeviation="27.9405"/>
<feComposite in2="hardAlpha" operator="out"/>
<feColorMatrix type="matrix" values="0 0 0 0 0.261806 0 0 0 0 0.272734 0 0 0 0 0.966667 0 0 0 0.64 0"/>
<feBlend mode="normal" in2="BackgroundImageFix" result="effect1_dropShadow_81_960"/>
<feBlend mode="normal" in="SourceGraphic" in2="effect1_dropShadow_81_960" result="shape"/>
</filter>
<linearGradient id="paint0_linear_81_960" x1="776.587" y1="-13" x2="776.587" y2="470" gradientUnits="userSpaceOnUse">
<stop offset="0.00356925" stop-color="#45F1C5"/>
<stop offset="0.0587982" stop-color="#7E6AFC"/>
<stop offset="0.942708" stop-color="#1D1F2B" stop-opacity="0"/>
</linearGradient>
<linearGradient id="paint1_linear_81_960" x1="-602.531" y1="41.8124" x2="641.827" y2="465.319" gradientUnits="userSpaceOnUse">
<stop stop-color="#FCBA33"/>
<stop offset="0.177083" stop-color="#EA5A1E"/>
<stop offset="0.385417" stop-color="#FD52F7"/>
<stop offset="0.598958" stop-color="#3567D0"/>
<stop offset="0.776042" stop-color="#39E4D7"/>
<stop offset="1" stop-color="#50FBB3"/>
</linearGradient>
<linearGradient id="paint2_linear_81_960" x1="-602.531" y1="41.8124" x2="641.827" y2="465.319" gradientUnits="userSpaceOnUse">
<stop stop-color="#FCBA33"/>
<stop offset="0.177083" stop-color="#EA5A1E"/>
<stop offset="0.385417" stop-color="#FD52F7"/>
<stop offset="0.598958" stop-color="#3567D0"/>
<stop offset="0.776042" stop-color="#39E4D7"/>
<stop offset="1" stop-color="#50FBB3"/>
</linearGradient>
<linearGradient id="paint3_linear_81_960" x1="75.0049" y1="346.349" x2="263.131" y2="297.483" gradientUnits="userSpaceOnUse">
<stop stop-color="#6115B5"/>
<stop offset="1" stop-color="#6314BB" stop-opacity="0"/>
</linearGradient>
<linearGradient id="paint4_linear_81_960" x1="-489.584" y1="-430.896" x2="331.718" y2="757.104" gradientUnits="userSpaceOnUse">
<stop stop-color="#FC9233"/>
<stop offset="0.230527" stop-color="#EA5A1E"/>
<stop offset="0.347825" stop-color="#F55693"/>
<stop offset="0.525743" stop-color="#4872F8"/>
<stop offset="0.616351" stop-color="#913DFD"/>
<stop offset="0.971488" stop-color="#00FFC2"/>
</linearGradient>
<linearGradient id="paint5_linear_81_960" x1="121.674" y1="378.599" x2="255.227" y2="330.165" gradientUnits="userSpaceOnUse">
<stop stop-color="#102A7A"/>
<stop offset="1" stop-color="#6081E9" stop-opacity="0"/>
</linearGradient>
<linearGradient id="paint6_linear_81_960" x1="1052.4" y1="362.855" x2="1582.93" y2="164.749" gradientUnits="userSpaceOnUse">
<stop stop-color="#FCBA33"/>
<stop offset="0.177083" stop-color="#EA5A1E"/>
<stop offset="0.385417" stop-color="#FD52F7"/>
<stop offset="0.598958" stop-color="#3567D0"/>
<stop offset="0.776042" stop-color="#39E4D7"/>
<stop offset="1" stop-color="#50FBB3"/>
</linearGradient>
<linearGradient id="paint7_linear_81_960" x1="1052.4" y1="362.855" x2="1582.93" y2="164.749" gradientUnits="userSpaceOnUse">
<stop stop-color="#FCBA33"/>
<stop offset="0.177083" stop-color="#EA5A1E"/>
<stop offset="0.385417" stop-color="#FD52F7"/>
<stop offset="0.598958" stop-color="#3567D0"/>
<stop offset="0.776042" stop-color="#39E4D7"/>
<stop offset="1" stop-color="#50FBB3"/>
</linearGradient>
<linearGradient id="paint8_linear_81_960" x1="1283.29" y1="356.68" x2="1230.15" y2="421.398" gradientUnits="userSpaceOnUse">
<stop stop-color="#6115B5"/>
<stop offset="1" stop-color="#6314BB" stop-opacity="0"/>
</linearGradient>
<linearGradient id="paint9_linear_81_960" x1="1361.43" y1="279.652" x2="1410.85" y2="212.048" gradientUnits="userSpaceOnUse">
<stop stop-color="#6115B5"/>
<stop offset="1" stop-color="#6314BB" stop-opacity="0"/>
</linearGradient>
<linearGradient id="paint10_linear_81_960" x1="961.154" y1="174.389" x2="1559.07" y2="346.642" gradientUnits="userSpaceOnUse">
<stop stop-color="#FC9233"/>
<stop offset="0.230527" stop-color="#EA5A1E"/>
<stop offset="0.347825" stop-color="#F55693"/>
<stop offset="0.525743" stop-color="#4872F8"/>
<stop offset="0.616351" stop-color="#913DFD"/>
<stop offset="0.971488" stop-color="#00FFC2"/>
</linearGradient>
<linearGradient id="paint11_linear_81_960" x1="1385.79" y1="277.681" x2="1417.13" y2="225.104" gradientUnits="userSpaceOnUse">
<stop stop-color="#102A7A"/>
<stop offset="1" stop-color="#6081E9" stop-opacity="0"/>
</linearGradient>
<linearGradient id="paint12_linear_81_960" x1="1324.1" y1="377.194" x2="1293.69" y2="430.309" gradientUnits="userSpaceOnUse">
<stop stop-color="#58107A"/>
<stop offset="1" stop-color="#6081E9" stop-opacity="0"/>
</linearGradient>
</defs>
</svg>
