<svg width="1440" height="889" viewBox="0 0 1440 889" fill="none" xmlns="http://www.w3.org/2000/svg">
<mask id="mask0_62_2102" style="mask-type:alpha" maskUnits="userSpaceOnUse" x="0" y="0" width="1440" height="889">
<rect width="1440" height="889" fill="#1C1E2A"/>
</mask>
<g mask="url(#mask0_62_2102)">
<g filter="url(#filter0_f_62_2102)">
<rect width="3012.88" height="2034.22" transform="matrix(0.923786 -0.38291 0.388058 0.921635 -1110 431.35)" fill="#1D1F2B"/>
<mask id="mask1_62_2102" style="mask-type:alpha" maskUnits="userSpaceOnUse" x="-1000" y="-243" width="3024" height="2263">
<rect width="2716.42" height="1324.93" transform="matrix(0.923786 -0.38291 0.388058 0.921635 -999.999 798.051)" fill="#D9D9D9"/>
</mask>
<g mask="url(#mask1_62_2102)">
<path d="M625.944 392.048L625.916 392.086L625.889 392.124C578.248 457.505 535.638 530.492 496.413 602.565C410.713 576.404 321.985 551.914 235.901 536.128C106.849 512.151 -37.621 503.326 -169.867 552.171C-426.356 646.905 -556.632 916.325 -444.993 1152.59C-333.344 1388.87 -24.7021 1496.15 231.476 1401.53C363.79 1352.66 458.107 1255.27 529.547 1157.63L529.574 1157.59L529.601 1157.55C577.242 1092.17 619.852 1019.18 659.077 947.111C744.777 973.272 833.506 997.762 919.59 1013.55C1048.64 1037.52 1193.11 1046.35 1325.36 997.505C1581.85 902.771 1712.12 633.351 1600.48 397.09C1488.84 160.829 1180.5 53.4122 924.014 148.146C791.7 197.016 697.383 294.408 625.944 392.048ZM270.966 1000.41C212.416 1080.6 159.292 1124.79 109.414 1143.21C1.15711 1183.2 -121.314 1133.95 -161.913 1048.03C-202.512 962.11 -156.063 850.474 -47.8053 810.489C2.09976 792.056 74.6021 789.577 180.584 809.238C180.587 809.238 180.59 809.239 180.593 809.24C180.595 809.24 180.598 809.24 180.6 809.241C237.56 819.826 298.042 835.547 362.375 854.385C332.325 908.073 302.473 957.152 270.966 1000.41ZM1203.3 739.187C1153.39 757.62 1080.88 760.099 974.89 740.435C917.931 729.85 857.448 714.129 793.116 695.291C823.165 641.603 853.017 592.523 884.524 549.268C943.074 469.076 996.198 424.887 1046.08 406.464C1154.33 366.479 1276.8 415.725 1317.4 501.645C1358 587.565 1311.55 699.202 1203.3 739.187Z" fill="url(#paint0_linear_62_2102)" stroke="url(#paint1_linear_62_2102)" stroke-width="107.499"/>
<path opacity="0.61" d="M694.042 1143.28L260.858 997.01C204.513 1088.96 184.304 1123.06 111.381 1196.16L466.801 1486.12C583.478 1369.17 666.911 1208.83 694.042 1143.28Z" fill="url(#paint2_linear_62_2102)"/>
<path opacity="0.74" d="M456.339 590.218L889.508 736.45C935.422 640.259 962.989 603.109 1035.91 530.011L671.938 260.771C562.073 384.052 486.326 517.768 456.339 590.218Z" fill="url(#paint3_linear_62_2102)"/>
<path fill-rule="evenodd" clip-rule="evenodd" d="M-527.86 1181.06C-654.556 912.939 -505.734 599.87 -201.473 487.491C-42.907 428.925 135.79 439.317 312.004 480.281L314.587 480.882L699.373 587.967C718.511 541.726 754.478 477.161 803.987 418.48C854.6 358.491 934.14 287.059 1041.84 267.013C1161.35 244.767 1256.17 277.032 1318.57 314.157C1349.16 332.354 1372.25 351.776 1387.89 366.799C1395.78 374.378 1401.97 381.038 1406.48 386.161C1408.73 388.729 1410.58 390.93 1412.02 392.69C1412.15 392.85 1412.27 393.007 1412.4 393.159C1412.48 393.251 1412.56 393.343 1412.64 393.436C1414.1 395.148 1415.87 397.289 1417.88 399.843C1421.89 404.939 1426.9 411.755 1432.3 420.159C1443.03 436.847 1455.78 460.548 1464.98 490.072C1483.91 550.85 1486.67 633.793 1432.18 723.507C1359.85 842.612 1235.42 877.914 1143.55 884.771C1097.83 888.183 1057.04 885.072 1028.07 881.304C1013.4 879.395 1001.25 877.249 992.394 875.49C987.954 874.607 984.307 873.815 981.547 873.186C980.166 872.872 979.004 872.598 978.072 872.373L976.846 872.074L976.365 871.954L976.062 871.878C976.017 871.866 975.972 871.855 1006.78 776.989L975.972 871.855L974.611 871.509L252.699 670.603C100.017 635.414 -21.7697 635.046 -115.407 669.631C-307.997 740.764 -400.132 939.294 -321.845 1104.97C-243.576 1270.61 -18.8002 1352.14 173.528 1281.1C264.133 1247.64 339.172 1184.99 396.307 1117.95C453.602 1050.73 482.481 987.402 491.918 962.486L706.536 1026.47C689.059 1072.62 645.622 1153.44 574.621 1236.75C503.459 1320.24 399.341 1411.63 259.594 1463.24C-44.3152 1575.49 -401.145 1449.23 -527.86 1181.06ZM1037.9 682.178C1038.67 682.348 1039.84 682.597 1041.36 682.9C1045.5 683.722 1052.12 684.911 1060.57 686.011C1077.87 688.26 1100.77 689.866 1124.77 688.075C1172.32 684.526 1211.42 669.743 1235.47 630.129C1258.75 591.797 1255.87 562.219 1249.72 542.486C1246.38 531.755 1241.73 523.204 1238.2 517.704C1236.54 515.133 1235.25 513.409 1234.65 512.643L1232.75 510.572L1230.72 507.909C1230.59 507.753 1230.4 507.536 1230.16 507.263C1229.04 505.987 1226.83 503.574 1223.59 500.461C1216.97 494.099 1206.91 485.654 1193.92 477.925C1169.17 463.197 1135.13 451.371 1087.84 460.174C1060.84 465.2 1023.15 488.863 982.953 536.504C950.432 575.05 925.976 617.876 912.705 647.337L1037.9 682.178Z" fill="url(#paint4_linear_62_2102)"/>
<path opacity="0.69" d="M699.257 655.65L913.222 722.609C949.229 635.616 993.08 578.916 1013.28 558.256L844.653 412.863C771.773 494.52 714.739 604.177 699.257 655.65Z" fill="url(#paint5_linear_62_2102)"/>
</g>
</g>
</g>
<rect opacity="0.45" y="389.93" width="1440" height="499.07" fill="url(#paint6_linear_62_2102)"/>
<defs>
<filter id="filter0_f_62_2102" x="-1305" y="-917.311" width="3962.65" height="3418.47" filterUnits="userSpaceOnUse" color-interpolation-filters="sRGB">
<feFlood flood-opacity="0" result="BackgroundImageFix"/>
<feBlend mode="normal" in="SourceGraphic" in2="BackgroundImageFix" result="shape"/>
<feGaussianBlur stdDeviation="97.5" result="effect1_foregroundBlur_62_2102"/>
</filter>
<linearGradient id="paint0_linear_62_2102" x1="-464.682" y1="985.564" x2="1467.88" y2="34.9436" gradientUnits="userSpaceOnUse">
<stop stop-color="#FCBA33"/>
<stop offset="0.177083" stop-color="#EA5A1E"/>
<stop offset="0.385417" stop-color="#FD52F7"/>
<stop offset="0.598958" stop-color="#3567D0"/>
<stop offset="0.776042" stop-color="#39E4D7"/>
<stop offset="1" stop-color="#50FBB3"/>
</linearGradient>
<linearGradient id="paint1_linear_62_2102" x1="-464.682" y1="985.564" x2="1467.88" y2="34.9436" gradientUnits="userSpaceOnUse">
<stop stop-color="#FCBA33"/>
<stop offset="0.177083" stop-color="#EA5A1E"/>
<stop offset="0.385417" stop-color="#FD52F7"/>
<stop offset="0.598958" stop-color="#3567D0"/>
<stop offset="0.776042" stop-color="#39E4D7"/>
<stop offset="1" stop-color="#50FBB3"/>
</linearGradient>
<linearGradient id="paint2_linear_62_2102" x1="430.182" y1="1029.72" x2="239.17" y2="1291.19" gradientUnits="userSpaceOnUse">
<stop stop-color="#6115B5"/>
<stop offset="1" stop-color="#6314BB" stop-opacity="0"/>
</linearGradient>
<linearGradient id="paint3_linear_62_2102" x1="717.654" y1="717.177" x2="893.633" y2="445.515" gradientUnits="userSpaceOnUse">
<stop stop-color="#6115B5"/>
<stop offset="1" stop-color="#6314BB" stop-opacity="0"/>
</linearGradient>
<linearGradient id="paint4_linear_62_2102" x1="-857.505" y1="355.421" x2="1465.44" y2="964.109" gradientUnits="userSpaceOnUse">
<stop stop-color="#FC9233"/>
<stop offset="0.230527" stop-color="#EA5A1E"/>
<stop offset="0.347825" stop-color="#F55693"/>
<stop offset="0.525743" stop-color="#4872F8"/>
<stop offset="0.616351" stop-color="#913DFD"/>
<stop offset="0.971488" stop-color="#00FFC2"/>
</linearGradient>
<linearGradient id="paint5_linear_62_2102" x1="811.8" y1="704.626" x2="921.27" y2="495.07" gradientUnits="userSpaceOnUse">
<stop stop-color="#102A7A"/>
<stop offset="1" stop-color="#6081E9" stop-opacity="0"/>
</linearGradient>
<linearGradient id="paint6_linear_62_2102" x1="720" y1="389.93" x2="720" y2="889" gradientUnits="userSpaceOnUse">
<stop stop-opacity="0"/>
<stop offset="1" stop-color="#1D202B"/>
</linearGradient>
</defs>
</svg>
