<svg width="1440" height="1007" viewBox="0 0 1440 1007" fill="none" xmlns="http://www.w3.org/2000/svg">
<mask id="mask0_62_2193" style="mask-type:alpha" maskUnits="userSpaceOnUse" x="0" y="0" width="1440" height="1007">
<rect width="1440" height="1007" fill="#1D1F2B"/>
</mask>
<g mask="url(#mask0_62_2193)">
<rect width="1440" height="1007" fill="#1D1F2B"/>
<mask id="mask1_62_2193" style="mask-type:alpha" maskUnits="userSpaceOnUse" x="0" y="0" width="1440" height="1007">
<rect y="7.62939e-06" width="1440" height="1007" fill="#1D1F2B"/>
</mask>
<g mask="url(#mask1_62_2193)">
<g filter="url(#filter0_f_62_2193)">
<rect x="-1238" y="-483.255" width="3016.37" height="2047.83" transform="rotate(-22.6734 -1238 -483.255)" fill="#1D1F2B"/>
<mask id="mask2_62_2193" style="mask-type:alpha" maskUnits="userSpaceOnUse" x="-964" y="-1261" width="3024" height="2280">
<rect x="-963.844" y="-212.146" width="2719.57" height="1333.8" transform="rotate(-22.6734 -963.844 -212.146)" fill="#D9D9D9"/>
</mask>
<g mask="url(#mask2_62_2193)">
<path d="M662.184 -620.978L662.156 -620.94L662.129 -620.902C614.507 -555.032 571.913 -481.503 532.701 -408.89C447.034 -435.244 358.345 -459.914 272.296 -475.818C143.259 -499.982 -1.25167 -508.889 -133.559 -459.637C-390.291 -364.066 -520.209 -92.5162 -408.779 145.159C-297.339 382.854 11.0577 491.214 267.479 395.76C399.853 346.483 494.186 248.292 565.617 149.895L565.644 149.857L565.672 149.819C613.294 83.9487 655.888 10.4197 695.1 -62.193C780.761 -35.8403 869.445 -11.172 955.489 4.73218C1084.53 28.8979 1229.05 37.8083 1361.36 -11.4463C1618.09 -107.017 1748.01 -378.567 1636.58 -616.242C1525.15 -853.917 1217.05 -962.413 960.322 -866.843C827.948 -817.566 733.614 -719.375 662.184 -620.978ZM307.197 -7.81626C248.642 73.0116 195.538 117.513 145.722 136.058C37.7078 176.267 -85.008 126.867 -125.816 39.8239C-166.625 -47.2187 -119.817 -159.726 -11.8026 -199.935C38.0432 -218.491 110.508 -221.001 216.506 -201.183C273.646 -190.482 334.333 -174.57 398.894 -155.504C368.748 -101.192 338.806 -51.5505 307.197 -7.81626ZM1239.6 -271.148C1189.76 -252.592 1117.29 -250.081 1011.28 -269.904C954.143 -280.605 893.462 -296.515 828.906 -315.579C859.05 -369.887 888.99 -419.524 920.595 -463.255C979.153 -544.09 1032.26 -588.596 1082.08 -607.141C1190.09 -647.35 1312.81 -597.95 1353.62 -510.907C1394.43 -423.864 1347.62 -311.357 1239.6 -271.148Z" fill="url(#paint0_linear_62_2193)" stroke="url(#paint1_linear_62_2193)" stroke-width="107.499"/>
<path opacity="0.61" d="M730.197 135.8L297.013 -11.6197C240.669 81.0534 220.459 115.422 147.536 189.095L502.956 481.345C619.634 363.467 703.066 201.866 730.197 135.8Z" fill="url(#paint2_linear_62_2193)"/>
<path fill-rule="evenodd" clip-rule="evenodd" d="M-491.705 173.884C-618.401 -96.3526 -469.579 -411.887 -165.317 -525.151C-6.75171 -584.178 171.945 -573.704 348.159 -532.417L350.742 -531.812L735.529 -423.884C754.667 -470.489 790.633 -535.562 840.143 -594.705C890.755 -655.166 970.295 -727.161 1077.99 -747.365C1197.51 -769.786 1292.33 -737.267 1354.73 -699.85C1385.31 -681.509 1408.41 -661.935 1424.04 -646.793C1431.93 -639.154 1438.13 -632.442 1442.63 -627.279C1444.89 -624.691 1446.73 -622.472 1448.17 -620.698C1448.3 -620.537 1448.43 -620.379 1448.55 -620.225C1448.63 -620.133 1448.71 -620.04 1448.79 -619.946C1450.25 -618.221 1452.02 -616.063 1454.03 -613.489C1458.04 -608.352 1463.05 -601.483 1468.46 -593.013C1479.19 -576.193 1491.94 -552.306 1501.13 -522.55C1520.07 -461.293 1522.82 -377.697 1468.34 -287.276C1396 -167.233 1271.58 -131.653 1179.7 -124.742C1133.99 -121.304 1093.2 -124.439 1064.23 -128.237C1049.55 -130.161 1037.4 -132.323 1028.55 -134.097C1024.11 -134.986 1020.46 -135.785 1017.7 -136.418C1016.32 -136.735 1015.16 -137.012 1014.23 -137.238L1013 -137.54L1012.52 -137.661L1012.22 -137.738C1012.17 -137.749 1012.13 -137.76 1042.93 -233.373L1012.13 -137.76L1010.77 -138.109L288.854 -340.597C136.173 -376.064 14.3856 -376.434 -79.2517 -341.577C-271.841 -269.884 -363.977 -69.7903 -285.69 97.1934C-207.421 264.137 17.3551 346.305 209.683 274.709C300.288 240.98 375.327 177.839 432.462 110.275C489.758 42.5206 518.636 -21.3033 528.073 -46.4161L742.691 18.0742C725.214 64.584 681.777 146.042 610.776 230.003C539.614 314.155 435.496 406.261 295.749 458.283C-8.15998 571.416 -364.99 444.161 -491.705 173.884ZM1074.05 -328.931C1074.82 -328.76 1075.99 -328.509 1077.52 -328.203C1081.65 -327.374 1088.28 -326.176 1096.73 -325.068C1114.02 -322.801 1136.92 -321.182 1160.92 -322.987C1208.48 -326.564 1247.57 -341.464 1271.63 -381.39C1294.91 -420.024 1292.03 -449.835 1285.88 -469.723C1282.54 -480.538 1277.89 -489.157 1274.35 -494.7C1272.7 -497.291 1271.4 -499.028 1270.81 -499.801L1268.91 -501.888L1266.87 -504.572C1266.74 -504.729 1266.56 -504.948 1266.32 -505.223C1265.19 -506.509 1262.99 -508.941 1259.75 -512.079C1253.12 -518.491 1243.07 -527.002 1230.08 -534.793C1205.32 -549.636 1171.28 -561.555 1123.99 -552.683C1096.99 -547.618 1059.3 -523.768 1019.11 -475.751C986.587 -436.903 962.131 -393.739 948.86 -364.046L1074.05 -328.931Z" fill="url(#paint3_linear_62_2193)"/>
<path opacity="0.69" d="M742.699 138.997L528.08 66.6182C499.6 145.565 448.117 222.946 431.348 242.604L603.842 386.585C678.995 294.12 722.192 191.52 742.699 138.997Z" fill="url(#paint4_linear_62_2193)"/>
</g>
</g>
</g>
<rect x="1440" y="850" width="1440" height="850" transform="rotate(-180 1440 850)" fill="url(#paint5_linear_62_2193)" fill-opacity="0.64"/>
</g>
<defs>
<filter id="filter0_f_62_2193" x="-1433" y="-1841" width="3962.65" height="3442.32" filterUnits="userSpaceOnUse" color-interpolation-filters="sRGB">
<feFlood flood-opacity="0" result="BackgroundImageFix"/>
<feBlend mode="normal" in="SourceGraphic" in2="BackgroundImageFix" result="shape"/>
<feGaussianBlur stdDeviation="97.5" result="effect1_foregroundBlur_62_2193"/>
</filter>
<linearGradient id="paint0_linear_62_2193" x1="-428.527" y1="-23.1565" x2="1509.92" y2="-969.218" gradientUnits="userSpaceOnUse">
<stop stop-color="#FCBA33"/>
<stop offset="0.177083" stop-color="#EA5A1E"/>
<stop offset="0.385417" stop-color="#FD52F7"/>
<stop offset="0.598958" stop-color="#3567D0"/>
<stop offset="0.776042" stop-color="#39E4D7"/>
<stop offset="1" stop-color="#50FBB3"/>
</linearGradient>
<linearGradient id="paint1_linear_62_2193" x1="-428.527" y1="-23.1565" x2="1509.92" y2="-969.218" gradientUnits="userSpaceOnUse">
<stop stop-color="#FCBA33"/>
<stop offset="0.177083" stop-color="#EA5A1E"/>
<stop offset="0.385417" stop-color="#FD52F7"/>
<stop offset="0.598958" stop-color="#3567D0"/>
<stop offset="0.776042" stop-color="#39E4D7"/>
<stop offset="1" stop-color="#50FBB3"/>
</linearGradient>
<linearGradient id="paint2_linear_62_2193" x1="466.337" y1="21.3446" x2="273.367" y2="283.438" gradientUnits="userSpaceOnUse">
<stop stop-color="#6115B5"/>
<stop offset="1" stop-color="#6314BB" stop-opacity="0"/>
</linearGradient>
<linearGradient id="paint3_linear_62_2193" x1="-821.35" y1="-658.261" x2="1503.92" y2="-53.7234" gradientUnits="userSpaceOnUse">
<stop stop-color="#FC9233"/>
<stop offset="0.230527" stop-color="#EA5A1E"/>
<stop offset="0.347825" stop-color="#F55693"/>
<stop offset="0.525743" stop-color="#4872F8"/>
<stop offset="0.616351" stop-color="#913DFD"/>
<stop offset="0.971488" stop-color="#00FFC2"/>
</linearGradient>
<linearGradient id="paint4_linear_62_2193" x1="628.941" y1="92.5875" x2="521.8" y2="304.979" gradientUnits="userSpaceOnUse">
<stop stop-color="#58107A"/>
<stop offset="1" stop-color="#6081E9" stop-opacity="0"/>
</linearGradient>
<linearGradient id="paint5_linear_62_2193" x1="2160" y1="850" x2="2160" y2="1700" gradientUnits="userSpaceOnUse">
<stop stop-opacity="0"/>
<stop offset="1" stop-color="#1D202B"/>
</linearGradient>
</defs>
</svg>
