<svg width="94" height="94" viewBox="0 0 94 94" fill="none" xmlns="http://www.w3.org/2000/svg">
<rect y="0.00012207" width="93.8592" height="93.8592" rx="29.331" fill="url(#paint0_linear_62_1885)"/>
<path d="M51.6225 63.7453C51.2001 63.7453 50.8091 63.5107 50.6057 63.1509C50.4023 62.7755 50.4023 62.3375 50.6213 61.962L52.2639 59.2245C52.5924 58.6613 53.3276 58.4892 53.8751 58.8177C54.4383 59.1462 54.6104 59.8658 54.2818 60.429L53.8595 61.1329C58.177 60.1161 61.4151 56.2366 61.4151 51.6062C61.4151 50.9649 61.947 50.433 62.5884 50.433C63.2298 50.433 63.7616 50.9649 63.7616 51.6062C63.746 58.3015 58.3021 63.7453 51.6225 63.7453Z" fill="url(#paint1_linear_62_1885)"/>
<path d="M31.2855 43.4093C30.6442 43.4093 30.1123 42.8774 30.1123 42.236C30.1123 35.5564 35.5561 30.1125 42.2358 30.1125C42.6581 30.1125 43.0492 30.3472 43.2526 30.707C43.4559 31.0824 43.4559 31.5204 43.2369 31.8959L41.5944 34.6334C41.2659 35.1809 40.5463 35.3687 39.9832 35.0245C39.4356 34.696 39.2479 33.9764 39.5921 33.4133L40.0144 32.7093C35.6813 33.7261 32.4588 37.6056 32.4588 42.236C32.4588 42.8774 31.9269 43.4093 31.2855 43.4093Z" fill="url(#paint2_linear_62_1885)"/>
<path d="M51.3088 47.9144V52.5135C51.3088 56.3461 49.7758 57.8792 45.9432 57.8792H41.3441C37.5115 57.8792 35.9785 56.3461 35.9785 52.5135V47.9144C35.9785 44.0819 37.5115 42.5488 41.3441 42.5488H45.9432C49.7758 42.5488 51.3088 44.0819 51.3088 47.9144Z" fill="white"/>
<path d="M52.5135 35.9788H47.9144C44.1444 35.9788 42.6114 37.4805 42.5645 41.1723H45.9434C50.5425 41.1723 52.67 43.3154 52.67 47.8989V51.2778C56.3774 51.2309 57.8635 49.6978 57.8635 45.9278V41.3444C57.8791 37.5118 56.3461 35.9788 52.5135 35.9788Z" fill="white"/>
<defs>
<linearGradient id="paint0_linear_62_1885" x1="-59.6323" y1="-75.2644" x2="204.974" y2="-37.639" gradientUnits="userSpaceOnUse">
<stop offset="0.281058" stop-color="#EDB748"/>
<stop offset="0.342251" stop-color="#F5956C"/>
<stop offset="0.407375" stop-color="#F360C1"/>
<stop offset="0.507494" stop-color="#A95FFC"/>
<stop offset="0.5772" stop-color="#488DF5"/>
<stop offset="0.658954" stop-color="#0ED2C3"/>
<stop offset="0.89289" stop-color="#0BC878"/>
</linearGradient>
<linearGradient id="paint1_linear_62_1885" x1="57.1084" y1="47.0959" x2="57.1084" y2="69.4902" gradientUnits="userSpaceOnUse">
<stop offset="0.116505" stop-color="white"/>
<stop offset="0.766713" stop-color="white" stop-opacity="0"/>
</linearGradient>
<linearGradient id="paint2_linear_62_1885" x1="36.7578" y1="26.7794" x2="36.7578" y2="49.1473" gradientUnits="userSpaceOnUse">
<stop offset="0.116505" stop-color="white"/>
<stop offset="0.766713" stop-color="white" stop-opacity="0"/>
</linearGradient>
</defs>
</svg>
