<svg width="94" height="94" viewBox="0 0 94 94" fill="none" xmlns="http://www.w3.org/2000/svg">
<rect y="-0.000244141" width="93.8592" height="93.8592" rx="29.331" fill="url(#paint0_linear_62_1876)"/>
<path d="M58.3014 35.6496L49.1345 31.5667C47.7892 30.9722 45.7556 30.9722 44.4102 31.5667L35.2433 35.6496C32.9281 36.682 32.584 38.0899 32.584 38.8408C32.584 39.5916 32.9281 40.9995 35.2433 42.032L44.4102 46.1148C45.0829 46.4121 45.9276 46.5685 46.7724 46.5685C47.6171 46.5685 48.4618 46.4121 49.1345 46.1148L58.3014 42.032C60.6166 40.9995 60.9607 39.5916 60.9607 38.8408C60.9607 38.0899 60.6322 36.682 58.3014 35.6496Z" fill="white"/>
<path d="M46.7715 54.656C46.1771 54.656 45.5826 54.5309 45.0351 54.2962L34.4916 49.6033C32.8804 48.8837 31.6289 46.9596 31.6289 45.1919C31.6289 44.5505 32.1451 44.0343 32.7865 44.0343C33.4279 44.0343 33.9441 44.5505 33.9441 45.1919C33.9441 46.0366 34.648 47.1317 35.4302 47.4758L45.9737 52.1688C46.4743 52.3878 47.0531 52.3878 47.5537 52.1688L58.0972 47.4758C58.8793 47.1317 59.5833 46.0523 59.5833 45.1919C59.5833 44.5505 60.0995 44.0343 60.7409 44.0343C61.3823 44.0343 61.8985 44.5505 61.8985 45.1919C61.8985 46.9439 60.647 48.8837 59.0358 49.6033L48.4923 54.2962C47.9604 54.5309 47.366 54.656 46.7715 54.656Z" fill="url(#paint1_linear_62_1876)"/>
<path d="M46.7715 62.4149C46.1771 62.4149 45.5826 62.2898 45.0351 62.0551L34.4916 57.3622C32.7552 56.5957 31.6289 54.8593 31.6289 52.9508C31.6289 52.3094 32.1451 51.7932 32.7865 51.7932C33.4279 51.7932 33.9441 52.3094 33.9441 52.9508C33.9441 53.9363 34.5229 54.828 35.4302 55.2347L45.9737 59.9277C46.4743 60.1467 47.0531 60.1467 47.5537 59.9277L58.0972 55.2347C58.9889 54.8436 59.5833 53.9363 59.5833 52.9508C59.5833 52.3094 60.0995 51.7932 60.7409 51.7932C61.3823 51.7932 61.8985 52.3094 61.8985 52.9508C61.8985 54.8593 60.7722 56.58 59.0358 57.3622L48.4923 62.0551C47.9604 62.2898 47.366 62.4149 46.7715 62.4149Z" fill="white"/>
<defs>
<linearGradient id="paint0_linear_62_1876" x1="-59.6323" y1="-75.2647" x2="204.974" y2="-37.6394" gradientUnits="userSpaceOnUse">
<stop offset="0.281058" stop-color="#EDB748"/>
<stop offset="0.342251" stop-color="#F5956C"/>
<stop offset="0.407375" stop-color="#F360C1"/>
<stop offset="0.507494" stop-color="#A95FFC"/>
<stop offset="0.5772" stop-color="#488DF5"/>
<stop offset="0.658954" stop-color="#0ED2C3"/>
<stop offset="0.89289" stop-color="#0BC878"/>
</linearGradient>
<linearGradient id="paint1_linear_62_1876" x1="46.7637" y1="41.3717" x2="46.7637" y2="59.2397" gradientUnits="userSpaceOnUse">
<stop offset="0.116505" stop-color="white"/>
<stop offset="0.766713" stop-color="white" stop-opacity="0"/>
</linearGradient>
</defs>
</svg>
